<?xml version="1.0" encoding="UTF-8"?>
<svg version="1.1" xmlns="http://www.w3.org/2000/svg" width="736" height="736">
<path d="M0 0 C1.75559697 -0.00302945 3.51119261 -0.00692286 5.26678598 -0.01159257 C10.03687664 -0.02177933 14.80689136 -0.01971482 19.57698798 -0.01541197 C24.74283114 -0.01292758 29.90865681 -0.02198008 35.07449341 -0.02944946 C45.17471132 -0.04215177 55.27490259 -0.0439957 65.37512715 -0.0416492 C73.59245812 -0.03986065 81.80978105 -0.04162715 90.02711105 -0.04587364 C91.20004677 -0.04646883 92.37298249 -0.04706402 93.58146172 -0.04767724 C95.96489856 -0.0488891 98.34833539 -0.05010323 100.73177223 -0.05131962 C123.04831497 -0.06217821 145.36484257 -0.0600408 167.68138616 -0.05393478 C188.05300527 -0.04876865 208.42457652 -0.06001605 228.79618616 -0.07903299 C249.76086648 -0.09845209 270.7255242 -0.10666017 291.69021356 -0.10290974 C303.44132524 -0.10100367 315.19239622 -0.10342694 326.94350052 -0.11762428 C336.94897055 -0.12959117 346.95437483 -0.13088395 356.95984586 -0.11883412 C362.0545073 -0.11298212 367.14904878 -0.11174278 372.24370193 -0.12383652 C396.66531542 -0.17787813 420.80285537 -0.07755217 444.6368103 6.01069641 C445.6690271 6.26891174 446.7012439 6.52712708 447.76473999 6.79316711 C470.31590534 12.61580407 492.07719886 21.9195692 509.8243103 37.26069641 C510.32720581 37.68286438 510.83010132 38.10503235 511.34823608 38.53999329 C537.56193517 60.61294029 551.5216518 92.45183451 558.5743103 125.32319641 C558.77314819 126.2431842 558.97198608 127.163172 559.17684937 128.11103821 C562.223889 143.14893662 563.12311382 158.13856381 563.08500671 173.43638611 C563.08803617 175.19198307 563.09192958 176.94757872 563.09659928 178.70317209 C563.10678605 183.47326275 563.10472154 188.24327747 563.10041869 193.01337409 C563.09793429 198.17921725 563.10698679 203.34504292 563.11445618 208.51087952 C563.12715849 218.61109743 563.12900242 228.7112887 563.12665591 238.81151326 C563.12486737 247.02884423 563.12663386 255.24616715 563.13088036 263.46349716 C563.13147554 264.63643288 563.13207073 265.8093686 563.13268396 267.01784783 C563.13389581 269.40128467 563.13510994 271.7847215 563.13632634 274.16815834 C563.14718493 296.48470108 563.14504751 318.80122868 563.13894149 341.11777227 C563.13377536 361.48939138 563.14502276 381.86096263 563.16403971 402.23257227 C563.1834588 423.19725259 563.19166689 444.16191031 563.18791646 465.12659967 C563.18601039 476.87771135 563.18843365 488.62878233 563.202631 500.37988663 C563.21459789 510.38535666 563.21589067 520.39076094 563.20384083 530.39623196 C563.19798883 535.49089341 563.1967495 540.58543489 563.20884323 545.68008804 C563.26288485 570.10170153 563.16255889 594.23924148 557.0743103 618.07319641 C556.81609497 619.10541321 556.55787964 620.13763 556.2918396 621.2011261 C550.46920264 643.75229145 541.16543751 665.51358497 525.8243103 683.26069641 C525.40214233 683.76359192 524.97997437 684.26648743 524.54501343 684.78462219 C502.47206643 710.99832128 470.6331722 724.95803791 437.7618103 732.01069641 C436.38182861 732.30895325 436.38182861 732.30895325 434.97396851 732.61323547 C419.93607009 735.6602751 404.9464429 736.55949993 389.64862061 736.52139282 C387.89302364 736.52442227 386.13742799 736.52831569 384.38183463 736.53298539 C379.61174397 736.54317215 374.84172924 736.54110765 370.07163262 736.5368048 C364.90578946 736.5343204 359.73996379 736.5433729 354.5741272 736.55084229 C344.47390928 736.56354459 334.37371801 736.56538853 324.27349345 736.56304202 C316.05616249 736.56125348 307.83883956 736.56301997 299.62150955 736.56726646 C297.86210597 736.56815925 297.86210597 736.56815925 296.06715889 736.56907007 C293.68372205 736.57028192 291.30028521 736.57149605 288.91684838 736.57271244 C266.60030564 736.58357104 244.28377803 736.58143362 221.96723445 736.5753276 C201.59561534 736.57016147 181.22404409 736.58140887 160.85243444 736.60042582 C139.88775413 736.61984491 118.9230964 736.62805299 97.95840704 736.62430257 C86.20729536 736.6223965 74.45622439 736.62481976 62.70512009 736.63901711 C52.69965005 736.65098399 42.69424578 736.65227677 32.68877475 736.64022694 C27.59411331 736.63437494 22.49957182 736.63313561 17.40491867 736.64522934 C-7.01669482 736.69927096 -31.15423477 736.598945 -54.9881897 730.51069641 C-56.02040649 730.25248108 -57.05262329 729.99426575 -58.11611938 729.72822571 C-80.66728473 723.90558875 -102.42857825 714.60182362 -120.1756897 699.26069641 C-120.67858521 698.83852844 -121.18148071 698.41636047 -121.69961548 697.98139954 C-147.91331457 675.90845254 -161.87303119 644.06955831 -168.9256897 611.19819641 C-169.12452759 610.27820862 -169.32336548 609.35822083 -169.52822876 608.41035461 C-172.57526839 593.3724562 -173.47449322 578.38282901 -173.43638611 563.08500671 C-173.43941556 561.32940975 -173.44330897 559.5738141 -173.44797868 557.81822073 C-173.45816544 553.04813007 -173.45610093 548.27811535 -173.45179808 543.50801873 C-173.44931369 538.34217557 -173.45836619 533.1763499 -173.46583557 528.01051331 C-173.47853788 517.91029539 -173.48038181 507.81010412 -173.47803531 497.70987956 C-173.47624676 489.4925486 -173.47801325 481.27522567 -173.48225975 473.05789566 C-173.48285494 471.88495994 -173.48345013 470.71202422 -173.48406335 469.50354499 C-173.48527521 467.12010816 -173.48648934 464.73667132 -173.48770573 462.35323448 C-173.49856432 440.03669174 -173.49642691 417.72016414 -173.49032088 395.40362056 C-173.48515476 375.03200145 -173.49640216 354.6604302 -173.5154191 334.28882055 C-173.5348382 313.32414023 -173.54304628 292.35948251 -173.53929585 271.39479315 C-173.53738978 259.64368147 -173.53981305 247.89261049 -173.55401039 236.1415062 C-173.56597728 226.13603616 -173.56727006 216.13063189 -173.55522022 206.12516086 C-173.54936823 201.03049942 -173.54812889 195.93595793 -173.56022263 190.84130478 C-173.61426424 166.41969129 -173.51393828 142.28215134 -167.4256897 118.44819641 C-167.16747437 117.41597961 -166.90925903 116.38376282 -166.64321899 115.32026672 C-160.82058204 92.76910138 -151.5168169 71.00780785 -136.1756897 53.26069641 C-135.75352173 52.7578009 -135.33135376 52.2549054 -134.89639282 51.73677063 C-112.82344582 25.52307154 -80.9845516 11.56335491 -48.1131897 4.51069641 C-47.1932019 4.31185852 -46.27321411 4.11302063 -45.3253479 3.90815735 C-30.28744949 0.86111772 -15.29782229 -0.03810711 0 0 Z " fill="#010101" transform="translate(173.17568969726563,-0.2606964111328125)"/>
<path d="M0 0 C21.75072614 -0.07043114 43.50143318 -0.12315381 65.25225067 -0.15543652 C75.35407855 -0.17083181 85.45583512 -0.19177894 95.55761719 -0.22631836 C104.37383659 -0.2564476 113.19000428 -0.27562813 122.00627375 -0.28226548 C126.66397164 -0.28613839 131.32152176 -0.29508224 135.97917175 -0.31719017 C159.88827824 -0.4262531 183.48024619 -0.21009188 206.8125 5.75 C207.8447168 6.00821533 208.87693359 6.26643066 209.94042969 6.5324707 C232.49159504 12.35510766 254.25288856 21.65887279 272 37 C272.50289551 37.42216797 273.00579102 37.84433594 273.52392578 38.27929688 C299.73762487 60.35224388 313.6973415 92.1911381 320.75 125.0625 C320.94883789 125.98248779 321.14767578 126.90247559 321.35253906 127.8503418 C324.39957869 142.88824021 325.29880352 157.8778674 325.26069641 173.1756897 C325.26372586 174.93128666 325.26761928 176.68688231 325.27228898 178.44247568 C325.28247574 183.21256634 325.28041123 187.98258106 325.27610838 192.75267768 C325.27362399 197.91852084 325.28267649 203.08434651 325.29014587 208.25018311 C325.30284818 218.35040102 325.30469212 228.45059229 325.30234561 238.55081685 C325.30055707 246.76814781 325.30232356 254.98547074 325.30657005 263.20280075 C325.30716524 264.37573647 325.30776043 265.54867219 325.30837366 266.75715142 C325.30958551 269.14058825 325.31079964 271.52402509 325.31201603 273.90746193 C325.32287463 296.22400467 325.32073721 318.54053227 325.31463119 340.85707586 C325.30946506 361.22869497 325.32071246 381.60026621 325.33972941 401.97187586 C325.3591485 422.93655618 325.36735658 443.9012139 325.36360615 464.86590326 C325.36170008 476.61701494 325.36412335 488.36808592 325.37832069 500.11919022 C325.39028758 510.12466025 325.39158036 520.13006453 325.37953053 530.13553555 C325.37367853 535.23019699 325.37243919 540.32473848 325.38453293 545.41939163 C325.43857454 569.84100512 325.33824859 593.97854507 319.25 617.8125 C318.99178467 618.8447168 318.73356934 619.87693359 318.4675293 620.94042969 C312.64489234 643.49159504 303.34112721 665.25288856 288 683 C287.57783203 683.50289551 287.15566406 684.00579102 286.72070312 684.52392578 C264.64775612 710.73762487 232.8088619 724.6973415 199.9375 731.75 C198.55751831 732.04825684 198.55751831 732.04825684 197.1496582 732.35253906 C180.01384588 735.82466647 163.07278139 736.28522736 145.64990234 736.22705078 C143.25318914 736.22648539 140.85647558 736.22680571 138.45976257 736.22793579 C132.0085239 736.22850533 125.55736088 736.21681621 119.10613966 736.20278788 C113.03055443 736.19051812 106.95496261 736.18953553 100.87936707 736.18748413 C88.85999364 736.18312653 76.84064764 736.16987049 64.82128906 736.15087891 C53.1582045 736.13246964 41.49512744 736.11833797 29.83203125 736.10986328 C29.11092035 736.10933783 28.38980944 736.10881239 27.6468467 736.10827102 C24.02858885 736.1056606 20.41033095 736.10313327 16.79207301 736.10064721 C-13.13863719 736.0799751 -43.06931536 736.04465234 -73 736 C-72.67 735.34 -72.34 734.68 -72 734 C-69.78198242 733.49755859 -69.78198242 733.49755859 -66.85546875 733.1484375 C-65.78490234 733.01953125 -64.71433594 732.890625 -63.61132812 732.7578125 C-61.9165332 732.56832031 -61.9165332 732.56832031 -60.1875 732.375 C-59.10017578 732.2409375 -58.01285156 732.106875 -56.89257812 731.96875 C-49.56446842 731.11532784 -42.37437711 730.83506984 -35 731 C-35 730.34 -35 729.68 -35 729 C-30.8012334 728.42695599 -26.60201355 727.85739311 -22.40234375 727.29101562 C-20.97448049 727.09795607 -19.54674419 726.90395498 -18.11914062 726.70898438 C-16.06413102 726.4284956 -14.0086848 726.15142416 -11.953125 725.875 C-10.09929199 725.62363281 -10.09929199 725.62363281 -8.20800781 725.3671875 C-5 725 -5 725 -1 725 C-1 724.34 -1 723.68 -1 723 C-0.28714844 722.80664062 0.42570312 722.61328125 1.16015625 722.4140625 C2.11792969 722.15367187 3.07570313 721.89328125 4.0625 721.625 C5.47208984 721.24214844 5.47208984 721.24214844 6.91015625 720.8515625 C9.08566139 720.25199218 11.25585808 719.63299124 13.421875 719 C16.99139846 718.00240392 20.57244849 717.19019602 24.1875 716.375 C33.47351315 714.17082299 42.11777984 710.51463614 50.90185547 706.84326172 C53.56233486 705.77399295 56.27898477 704.90163818 59 704 C60.22369298 703.40563484 61.43425883 702.78289809 62.625 702.125 C65.99957421 700.37306588 69.37055411 699.19155937 73 698.0625 C77.52532521 696.61643743 81.10167982 694.87401453 85.01171875 692.21875 C87.99509383 690.39004072 91.20001814 689.28083675 94.4609375 688.0390625 C101.79354283 685.2883233 101.79354283 685.2883233 107 680 C108.99445642 679.3169275 110.99553339 678.65311412 113 678 C120.75388797 673.98535035 127.94352584 669.11897111 135 664 C136.37865234 663.02353516 136.37865234 663.02353516 137.78515625 662.02734375 C146.34508867 655.9164704 153.84247883 649.31420763 161.1171875 641.72265625 C163 640 163 640 165 640 C165.24234375 639.42765625 165.4846875 638.8553125 165.734375 638.265625 C167.23408134 635.58096551 169.0172415 633.86124784 171.25 631.75 C174.89087755 628.21465514 177.94579262 624.61768771 180.80859375 620.43359375 C181.20175781 619.96050781 181.59492187 619.48742187 182 619 C182.66 619 183.32 619 184 619 C184.33 618.01 184.66 617.02 185 616 C186.64429829 614.31126121 188.31384218 612.64694485 190 611 C193.57390701 607.20949257 195.21575296 603.32582877 196.97265625 598.5 C198 596 198 596 199.5 593.51953125 C201.03154451 590.94701508 201.98256217 588.51952594 202.9375 585.6875 C204.93765323 580.01530975 207.24450975 574.70525548 210.5234375 569.65234375 C212.14077429 566.74712767 212.84577255 564.17710806 213.5625 560.9375 C214.79788387 555.40270108 214.79788387 555.40270108 216.03125 552.9453125 C217.20081891 550.59674267 217.54553608 548.53192788 217.9375 545.9375 C218.5025127 542.19937597 219.08911157 538.47591897 219.79296875 534.76171875 C222.06028368 522.42010039 222.47728102 510.5228533 222 498 C221.93619141 496.24357178 221.93619141 496.24357178 221.87109375 494.45166016 C221.28266925 466.67606078 221.28266925 466.67606078 212 441 C211.16153179 438.37595664 210.39902489 435.78184176 209.6875 433.125 C206.33345469 421.25664189 202.51299789 409.9365456 195 400 C194.29617188 399.03320312 193.59234375 398.06640625 192.8671875 397.0703125 C185.40462796 386.92629088 177.32484354 377.94916027 168 369.5 C165.02197455 366.80163684 162.09965771 364.10195529 159.2890625 361.2265625 C156.8952388 358.89809918 155.08676484 358.13722915 152 357 C151.56558594 356.53335937 151.13117188 356.06671875 150.68359375 355.5859375 C148.52948317 353.55677533 146.44762584 352.81072495 143.6875 351.75 C139.02456821 349.88707178 134.58236392 347.81159797 130.125 345.5 C124.25610553 342.50712351 118.34524683 340.23538686 112.11328125 338.12109375 C109.52699946 337.1897727 107.22311918 336.17604701 104.8125 334.875 C101.02959063 332.86229822 97.15302545 331.82845358 93.00390625 330.80859375 C90.5662155 330.15241432 88.24660858 329.40141999 85.8671875 328.5703125 C80.51740124 326.76554522 75.08771135 325.57386251 69.5625 324.4375 C68.52222656 324.22134033 67.48195313 324.00518066 66.41015625 323.7824707 C57.31751714 321.95154636 48.23678681 320.78139484 39 320 C40.19162041 314.96802778 41.46914149 311.8950664 44.9375 307.9375 C46.13439453 306.53757812 46.13439453 306.53757812 47.35546875 305.109375 C47.99621338 304.36397461 47.99621338 304.36397461 48.64990234 303.60351562 C51.09782391 300.69611077 53.41667073 297.68703994 55.75 294.6875 C65.39268692 282.30365654 65.39268692 282.30365654 68 281 C68.96037514 279.30840648 69.91821589 277.61527811 70.85791016 275.91210938 C72.65030102 272.91125319 74.88503243 270.36784621 77.1875 267.75 C78.16354194 266.61916365 79.13878968 265.48764139 80.11328125 264.35546875 C80.59748535 263.79520996 81.08168945 263.23495117 81.58056641 262.65771484 C83.71982106 260.15934211 85.79797656 257.61268121 87.875 255.0625 C88.59558594 254.17949219 89.31617188 253.29648438 90.05859375 252.38671875 C91.24095084 250.93315702 92.42120184 249.47787449 93.59765625 248.01953125 C96.78481964 244.10759018 96.78481964 244.10759018 99 243 C99.41121094 242.30132812 99.82242188 241.60265625 100.24609375 240.8828125 C102.48948283 237.19546029 105.21933511 234.1097385 108.0625 230.875 C109.13820481 229.64452673 110.21247964 228.41280153 111.28515625 227.1796875 C111.99490601 226.37120361 111.99490601 226.37120361 112.71899414 225.54638672 C115.40896241 222.34167098 115.40896241 222.34167098 115.9375 218.3125 C114.36805021 212.76711074 111.00293214 208.44867976 107.75 203.75 C106 201 106 201 105.5 198.875 C105.12054534 196.80482139 105.12054534 196.80482139 103.125 195.1875 C100.428597 192.41179103 99.40688519 189.5811623 98 186 C97.34467235 184.66105717 96.68059096 183.32627982 96 182 C88.82187801 182.5032191 82.00644206 183.51931716 75 185.125 C60.99759561 188.2045307 46.84873622 190.37102182 32.68945312 192.58837891 C31.77349869 192.73331284 30.85754425 192.87824677 29.91383362 193.02757263 C28.1884877 193.30026991 26.46255474 193.56928948 24.73594666 193.83387756 C20.03137673 194.57840986 15.57338058 195.6354251 11 197 C8.56883048 197.39529111 6.13071808 197.75020897 3.6875 198.0625 C-0.80813443 198.52725854 -0.80813443 198.52725854 -5 200 C-6.8521563 200.09584979 -8.70787153 200.12983606 -10.5625 200.125 C-11.55378906 200.12757813 -12.54507813 200.13015625 -13.56640625 200.1328125 C-16 200 -16 200 -17 199 C-17.49547431 190.88416979 -16.78996751 182.66037797 -16.25 174.5625 C-16.16564697 173.29293457 -16.08129395 172.02336914 -15.99438477 170.71533203 C-15.24188153 159.90678412 -14.13861816 149.14197214 -12.9375 138.375 C-12.84964233 137.58320343 -12.76178467 136.79140686 -12.67126465 135.97561646 C-11.18956146 122.7208601 -11.18956146 122.7208601 -10.47265625 119.99462891 C-9.75690986 116.97414958 -9.69489402 113.97199658 -9.53515625 110.875 C-9.45778316 109.44237736 -9.38030512 108.00976039 -9.30273438 106.57714844 C-9.26365967 105.83009644 -9.22458496 105.08304443 -9.18432617 104.31335449 C-8.60672913 93.34537702 -7.96016963 82.41499125 -6.75024414 71.49609375 C-5.94440115 64.01158133 -5.47529741 56.51183631 -5 49 C-4.43039916 40.07045466 -3.81740804 31.154934 -2.9375 22.25 C-2.85822266 21.42886719 -2.77894531 20.60773437 -2.69726562 19.76171875 C-2.12742427 14.25484855 -2.12742427 14.25484855 -1 12 C-0.77141886 9.9625237 -0.58975722 7.91959697 -0.4375 5.875 C-0.31181641 4.23144531 -0.31181641 4.23144531 -0.18359375 2.5546875 C-0.12300781 1.71164062 -0.06242187 0.86859375 0 0 Z " fill="#010101" transform="translate(411,0)"/>
<path d="M0 0 C0.02698189 1.62490954 0.04638757 3.24994633 0.0625 4.875 C0.07410156 5.77992188 0.08570313 6.68484375 0.09765625 7.6171875 C0 10 0 10 -1 12 C-1.27115638 14.06508846 -1.4896766 16.13716985 -1.68359375 18.2109375 C-1.86643921 20.15129883 -1.86643921 20.15129883 -2.05297852 22.13085938 C-2.18145703 23.54554528 -2.30962305 24.96025959 -2.4375 26.375 C-2.53646072 27.44826538 -2.53646072 27.44826538 -2.63742065 28.54321289 C-3.66346199 39.6730898 -4.53833568 50.80900103 -5.29833984 61.96044922 C-5.87865452 70.46808135 -6.57884951 78.96066908 -7.32055664 87.45556641 C-7.93622621 94.70787266 -8.3528043 101.95693191 -8.57055664 109.23242188 C-8.71938728 113.15714107 -9.11889827 116.8450726 -9.95678711 120.68603516 C-10.97029774 125.6225529 -11.57712416 130.5162301 -12.03515625 135.53125 C-12.11873886 136.40664429 -12.20232147 137.28203857 -12.28843689 138.18395996 C-12.46310079 140.02572501 -12.63523559 141.86773153 -12.80493164 143.70996094 C-13.05937559 146.46615568 -13.32296707 149.22135755 -13.58789062 151.9765625 C-15.00556261 166.94142775 -16.2982564 181.95462168 -16 197 C-10.1530879 197.193464 -4.74974998 197.2479291 0.88842773 195.5871582 C9.60182313 193.16425198 18.68561336 192.02736814 27.60018921 190.57019043 C39.81596109 188.57008886 52.01628568 186.50736314 64.1875 184.25 C65.2592749 184.05172607 66.3310498 183.85345215 67.43530273 183.64916992 C71.93626724 182.80512631 76.41361234 181.92061881 80.875 180.88671875 C85.94515402 179.74278343 90.82822745 179.19587825 96 180 C99.69255486 182.95404389 100.83478793 186.82356576 102.19140625 191.23046875 C102.9799593 193.36670146 102.9799593 193.36670146 106 195 C106.69040574 196.65697379 107.3530635 198.3255761 108 200 C109.3227887 202.00698975 110.65783025 204.00591923 112 206 C112.96002945 207.50671289 113.89668536 209.02851049 114.8125 210.5625 C115.25207031 211.28566406 115.69164062 212.00882813 116.14453125 212.75390625 C117.25631647 215.67297704 117.00693876 217.05664056 116 220 C114.3984375 222.39453125 114.3984375 222.39453125 112.375 224.8125 C111.65828125 225.67746094 110.9415625 226.54242188 110.203125 227.43359375 C107.65869926 230.39757905 105.08216092 233.32880086 102.4453125 236.2109375 C100.95659005 238.05373448 100.03994272 239.8811167 99 242 C97.86126681 243.17222534 96.71683077 244.33965694 95.5390625 245.47265625 C88.82299977 252.13758145 82.91524814 259.63244184 77 267 C76.32195312 267.84433594 75.64390625 268.68867188 74.9453125 269.55859375 C71.67674497 273.52380157 71.67674497 273.52380157 69.12109375 277.94140625 C67.55639319 280.81456721 65.33978012 282.72064462 63 285 C61.09834295 287.10610719 59.26666784 289.26837586 57.4375 291.4375 C56.96892578 291.98470703 56.50035156 292.53191406 56.01757812 293.09570312 C53.06897132 296.58042026 50.52884626 300.19364134 48 304 C46.2455878 306.0135026 44.42924435 307.94315003 42.5859375 309.875 C40.66898548 312.44352684 39.87895542 314.93670981 39 318 C39.97453125 318.00257813 40.9490625 318.00515625 41.953125 318.0078125 C52.02222131 318.21781294 61.5922319 319.70317148 71.4375 321.8125 C73.19465332 322.1849585 73.19465332 322.1849585 74.98730469 322.56494141 C81.36846939 323.98528849 87.44900414 325.71959034 93.5456543 328.08447266 C96.88044929 329.32842782 100.27640886 330.26672546 103.7109375 331.19140625 C106 332 106 332 108.33203125 333.421875 C111.51926277 335.30714811 114.83414911 336.47373593 118.3125 337.6875 C124.93879396 340.07459777 131.18626868 342.92060977 137.41918945 346.19604492 C140.68052961 347.89833877 143.86382149 349.34456279 147.34375 350.55078125 C151 352 151 352 153 355 C154.0725 355.4125 155.145 355.825 156.25 356.25 C160.06572604 357.76055546 161.89445108 359.92806099 164.3984375 363.1015625 C166.66650393 365.79005101 169.28296174 367.97139941 171.97265625 370.2265625 C181.55101967 378.60532356 189.90360323 388.46698341 197 399 C197.58394531 399.83015625 198.16789062 400.6603125 198.76953125 401.515625 C204.88225474 410.95378046 207.76237068 421.6568093 211.12109375 432.29931641 C212.29817215 435.91621675 213.6309652 439.45152474 215 443 C219.54199597 455.15404478 221.45285706 467.58909516 222.1875 480.5 C222.26572998 481.80300049 222.34395996 483.10600098 222.42456055 484.44848633 C223.43682356 502.43188518 223.43820612 519.29088355 220 537 C219.73335985 538.45814807 219.46771246 539.91647807 219.203125 541.375 C217.29552979 551.57555146 217.29552979 551.57555146 215 556 C214.46433706 558.21804137 214.06241451 560.43797726 213.66015625 562.68359375 C212.86294386 565.48091298 211.53014214 567.52572761 210 570 C208.80351359 572.42832356 207.63585121 574.85647219 206.5 577.3125 C206.18957764 577.97894531 205.87915527 578.64539063 205.55932617 579.33203125 C204.0137227 582.68254293 202.54972202 586.02074028 201.3125 589.5 C199.87828018 593.32458619 198.05971649 596.47854923 196 600 C195.7009375 600.79792969 195.401875 601.59585938 195.09375 602.41796875 C193.90662098 605.22044119 192.45887261 607.25147557 190.5625 609.625 C189.96566406 610.38039063 189.36882812 611.13578125 188.75390625 611.9140625 C187.23329016 613.72254578 185.77838546 615.44453194 184 617 C183.34 617 182.68 617 182 617 C181.78085937 617.53753906 181.56171875 618.07507813 181.3359375 618.62890625 C179.54194161 621.81298668 177.1237784 624.30391908 174.625 626.9375 C171.94672465 629.7840627 169.31741573 632.5998567 166.88671875 635.6640625 C165.11479574 637.85787194 163.33193143 639.6162619 161.1875 641.4375 C160.49527344 642.03046875 159.80304688 642.6234375 159.08984375 643.234375 C158.40019531 643.81703125 157.71054687 644.3996875 157 645 C155.74906519 646.06139924 154.49900535 647.12383093 153.25 648.1875 C152.71890625 648.63480469 152.1878125 649.08210937 151.640625 649.54296875 C150.42807809 650.61982588 149.26522086 651.75322548 148.1328125 652.9140625 C140.82778747 660.05853753 131.83374471 665.5656882 123.20703125 670.98046875 C121.2920552 672.18636719 119.38876298 673.41164942 117.51171875 674.67578125 C113.92163623 677.07593058 111.40006657 678.6875104 107 678 C106.67 678.99 106.34 679.98 106 681 C103.60016923 682.47794456 101.25507679 683.79109097 98.75 685.0625 C98.08097656 685.41376953 97.41195313 685.76503906 96.72265625 686.12695312 C93.20663497 687.95404081 89.68729508 689.54345284 86 691 C85.05125 691.598125 84.1025 692.19625 83.125 692.8125 C78.32584346 695.66233026 72.92886999 697.04816221 67.62109375 698.65625 C63.94512668 700.02036292 61.2350869 701.81718599 58 704 C55.09765625 705.0546875 55.09765625 705.0546875 52.0625 705.875 C47.04359714 707.31957614 42.30337543 709.04348346 37.5 711.0625 C30.79757846 713.84920085 24.09295346 715.52975194 17 717 C13.95006394 717.84136167 10.9173275 718.6999396 7.91015625 719.68359375 C-6.80287882 724.16955863 -22.67376799 725.64456116 -38 725 C-38 725.66 -38 726.32 -38 727 C-39.52030242 727.31507274 -41.041276 727.62690732 -42.5625 727.9375 C-43.40941406 728.11152344 -44.25632812 728.28554688 -45.12890625 728.46484375 C-61.69023568 731.55178543 -78.78978178 731.21149064 -95.57373047 731.24023438 C-98.96737503 731.24990701 -102.36040346 731.28103771 -105.75390625 731.3125 C-143.90352623 731.4959249 -143.90352623 731.4959249 -157 726 C-159.60160637 725.31125748 -162.19147561 724.66532964 -164.8125 724.0625 C-165.55806152 723.88702637 -166.30362305 723.71155273 -167.07177734 723.53076172 C-171.41355561 722.52796754 -175.75181715 721.67971349 -180.14770508 720.95483398 C-190.15652868 719.28525494 -199.09444069 716.0185594 -208.15625 711.38671875 C-210.61106913 710.18965723 -212.72728763 709.40595277 -215.375 708.8125 C-216.57125 708.544375 -217.7675 708.27625 -219 708 C-219 707.34 -219 706.68 -219 706 C-220.32 705.67 -221.64 705.34 -223 705 C-223 704.34 -223 703.68 -223 703 C-223.61488281 702.95101562 -224.22976562 702.90203125 -224.86328125 702.8515625 C-225.67152344 702.77679687 -226.47976562 702.70203125 -227.3125 702.625 C-228.51326172 702.52058594 -228.51326172 702.52058594 -229.73828125 702.4140625 C-232 702 -232 702 -235 700 C-235 699.34 -235 698.68 -235 698 C-235.7528125 697.89171875 -236.505625 697.7834375 -237.28125 697.671875 C-241.9220594 696.52500831 -244.61820414 693.2519349 -248 690 C-248.75240967 689.28626221 -248.75240967 689.28626221 -249.52001953 688.55810547 C-256.53596137 681.87635556 -262.85992774 675.27152405 -268 667 C-268.65484375 665.97003906 -269.3096875 664.94007813 -269.984375 663.87890625 C-272.03260072 660.61021521 -274.02079168 657.31082291 -276 654 C-276.53753906 653.15179687 -277.07507813 652.30359375 -277.62890625 651.4296875 C-281.17326605 645.5255059 -283.31862283 639.42982619 -285.3125 632.875 C-285.69462646 631.6219104 -285.69462646 631.6219104 -286.08447266 630.34350586 C-292.16263537 609.33096174 -292.69231313 579.57704323 -282 560 C-281.34 560 -280.68 560 -280 560 C-279.84144531 559.35933594 -279.68289063 558.71867188 -279.51953125 558.05859375 C-277.9041659 552.07013987 -276.02551384 547.74804197 -272 543 C-271.34 543 -270.68 543 -270 543 C-269.88591797 541.94619141 -269.88591797 541.94619141 -269.76953125 540.87109375 C-268.78275606 537.1894706 -267.05038424 535.05096443 -264.6875 532.0625 C-264.25179687 531.50836426 -263.81609375 530.95422852 -263.3671875 530.38330078 C-259.35970608 525.33584971 -255.17228672 520.438638 -250.9362793 515.58227539 C-248.79160571 513.12148455 -246.81375577 510.72063365 -245 508 C-244.34 508 -243.68 508 -243 508 C-242.73960937 507.401875 -242.47921875 506.80375 -242.2109375 506.1875 C-240.90933899 503.83622528 -239.70180804 502.6824774 -237.625 501 C-233.14536388 497.23677627 -229.08936849 493.12465488 -225.03759766 488.91210938 C-223.72771978 487.57192804 -222.36754439 486.28128389 -221 485 C-220.34 485 -219.68 485 -219 485 C-219 484.34 -219 483.68 -219 483 C-213.52380952 478 -213.52380952 478 -211 478 C-211.55869369 481.44037693 -212.47255562 482.69710633 -215.25 484.75 C-218.67137005 487.50532465 -220.72313062 490.35432121 -222.859375 494.16796875 C-224.05740125 496.09219584 -225.35813361 497.44542271 -227 499 C-245.64191282 518.68045949 -262.15973355 543.42510542 -261.5793457 571.52270508 C-261.02414805 581.74635507 -258.45527612 591.85536944 -253.9296875 601.046875 C-252.69397221 603.64291553 -251.84321365 606.33130079 -251.00390625 609.078125 C-249.52555502 611.90827599 -247.27895195 613.78119634 -245 616 C-243.58407582 617.73378471 -242.1884096 619.48429236 -240.8125 621.25 C-230.73352027 633.83905425 -230.73352027 633.83905425 -217 641 C-217 641.66 -217 642.32 -217 643 C-213.96372386 644.03677722 -210.93612065 645.01770913 -207.84375 645.875 C-203.5157379 647.10240658 -199.29620375 648.6085577 -195.0625 650.125 C-194.28326172 650.40214844 -193.50402344 650.67929687 -192.70117188 650.96484375 C-190.80009402 651.6413009 -188.89994884 652.32037826 -187 653 C-187 653.66 -187 654.32 -187 655 C-173.43685367 657.93763999 -159.94851085 659.35475662 -146.125 660.125 C-144.64710401 660.21170583 -143.16923908 660.29894285 -141.69140625 660.38671875 C-138.12793953 660.59724063 -134.56411278 660.8006763 -131 661 C-131 661.66 -131 662.32 -131 663 C-117.52569574 664.14035551 -104.0659151 664.18617266 -90.55078125 664.18530273 C-86.79936052 664.18747146 -83.04824331 664.20563569 -79.296875 664.22460938 C-66.80104498 664.25504652 -54.36139147 664.00163048 -41.890625 663.17578125 C-40.77073181 663.10642868 -39.65083862 663.03707611 -38.49700928 662.96562195 C-28.6252975 662.23043622 -19.48940982 659.92984505 -10.1640625 656.69140625 C-7.16353976 655.73275548 -4.12500791 655.06967377 -1.04296875 654.4296875 C0.98604857 654.00293433 2.99163444 653.51450264 5 653 C5 652.34 5 651.68 5 651 C5.85722656 650.74605469 6.71445312 650.49210938 7.59765625 650.23046875 C13.57252557 648.43194552 19.31552194 646.56358814 25 644 C28.95818864 642.42725965 32.84882457 640.97566429 37 640 C37 639.34 37 638.68 37 638 C37.55945313 637.8040625 38.11890625 637.608125 38.6953125 637.40625 C45.45985343 634.88314149 51.50742699 631.55544243 57.703125 627.90234375 C61 626 61 626 64.19140625 624.453125 C66.79407849 623.10654076 68.57524203 621.81083844 70.6875 619.8125 C73.87296896 616.91494843 77.17769429 614.37054734 80.6875 611.875 C83.69337944 609.73508029 86.51242078 607.67079302 89.0625 605 C89.701875 604.34 90.34125 603.68 91 603 C91.66 603 92.32 603 93 603 C93 602.34 93 601.68 93 601 C94.28515625 599.7734375 94.28515625 599.7734375 96.0625 598.375 C103.23417549 592.36513594 108.32884744 585.27287544 113.3605957 577.45532227 C115.3278538 574.41530305 117.31906624 571.5523125 119.69140625 568.8125 C121.72303237 566.3374225 122.83232724 564.61710632 123.8125 561.625 C124.204375 560.42875 124.59625 559.2325 125 558 C125.66 558 126.32 558 127 558 C127.28875 557.071875 127.5775 556.14375 127.875 555.1875 C129 552 129 552 131 549 C131.52856846 547.51668746 132.0026326 546.01343683 132.4375 544.5 C132.69176758 543.61779785 132.94603516 542.7355957 133.20800781 541.82666016 C133.46936523 540.8938623 133.73072266 539.96106445 134 539 C134.2690918 538.05044434 134.53818359 537.10088867 134.81542969 536.12255859 C136.36265464 530.57024765 137.75363332 525.064112 138.578125 519.3515625 C139 517 139 517 140.02734375 513.7265625 C141.08595364 509.67068365 141.34343821 505.91003498 141.3125 501.75 C141.30730347 500.5906897 141.30730347 500.5906897 141.30200195 499.40795898 C141.03657893 484.82728983 138.74212684 469.20462175 132.06811523 456.15698242 C131.01553171 454.03136518 130.06461729 451.88739836 129.140625 449.703125 C125.21350369 440.42477279 121.05851965 432.10869116 115 424 C114.56042969 423.40058594 114.12085938 422.80117188 113.66796875 422.18359375 C110.83183179 418.55068252 107.41715191 415.64154636 103.921875 412.671875 C102.29326764 411.25511901 100.75911621 409.73091431 99.25 408.1875 C97.20618485 406.20045749 95.6154888 405.06556951 93 404 C93 403.34 93 402.68 93 402 C92.34 401.7525 91.68 401.505 91 401.25 C81.69741027 397.37392095 81.69741027 397.37392095 78.17578125 394.5234375 C58.22272841 380.55271828 14.75743115 375.4282988 -8.87744141 379.49511719 C-14.31367347 380.65191686 -19.68424834 382.03328769 -25.03320312 383.54101562 C-27 384 -27 384 -30 384 C-30 384.66 -30 385.32 -30 386 C-31.051875 386.4125 -32.10375 386.825 -33.1875 387.25 C-37.18859872 388.96243779 -40.99263432 390.98526863 -43 395 C-43.66 395 -44.32 395 -45 395 C-45.4021875 395.86625 -45.4021875 395.86625 -45.8125 396.75 C-47 399 -47 399 -48.5 400.9375 C-50.11249292 402.96190479 -50.11249292 402.96190479 -50.9375 405.5 C-52 408 -52 408 -53.81640625 409.6796875 C-56.65054058 412.6912721 -58.21763757 415.92210751 -60 419.625 C-60.35320312 420.34429687 -60.70640625 421.06359375 -61.0703125 421.8046875 C-63.22134037 426.23421156 -65.12996711 430.69811926 -66.87109375 435.3046875 C-68.70801818 439.69042402 -70.90735997 443.89769787 -73.09570312 448.1171875 C-75.41866684 452.64538187 -77.28475034 457.21213428 -79 462 C-79.46535156 463.22203125 -79.93070313 464.4440625 -80.41015625 465.703125 C-82.5261145 471.34751592 -84.47146142 477.05209853 -86.4375 482.75 C-86.81970703 483.8534375 -87.20191406 484.956875 -87.59570312 486.09375 C-88.73639855 489.39382642 -89.86880252 492.69665745 -91 496 C-91.38091797 497.09836182 -91.76183594 498.19672363 -92.15429688 499.32836914 C-92.51458984 500.38145264 -92.87488281 501.43453613 -93.24609375 502.51953125 C-93.56892334 503.45643799 -93.89175293 504.39334473 -94.22436523 505.35864258 C-95.17663511 508.60151567 -95.53480924 511.72762395 -95.78515625 515.0859375 C-96.06808781 517.6066005 -96.90024136 519.72716548 -98 522 C-98.99 522 -99.98 522 -101 522 C-104.81685908 508.97889837 -104.52199643 495.88804921 -104.625 482.4375 C-104.67405079 477.93612229 -104.73022062 473.43485346 -104.7890625 468.93359375 C-104.80316162 467.84114853 -104.81726074 466.74870331 -104.83178711 465.62315369 C-104.93463545 458.49441179 -105.11145675 451.37316863 -105.4140625 444.25 C-105.44561432 443.40420883 -105.47716614 442.55841766 -105.50967407 441.68699646 C-105.9484012 432.46237934 -108.15955751 424.54303195 -115 418 C-118.25169201 415.53911064 -121.60693159 413.26028114 -125 411 C-131.52493197 406.4920861 -131.52493197 406.4920861 -133.45166016 404.49633789 C-135.14303356 402.86177031 -136.75610992 401.8994318 -138.8359375 400.80859375 C-139.57070313 400.42123047 -140.30546875 400.03386719 -141.0625 399.63476562 C-141.825625 399.23966797 -142.58875 398.84457031 -143.375 398.4375 C-144.13039063 398.03853516 -144.88578125 397.63957031 -145.6640625 397.22851562 C-149.38872557 395.27827683 -153.08670228 393.54397383 -157 392 C-157.99 391.34 -158.98 390.68 -160 390 C-159.67 388.68 -159.34 387.36 -159 386 C-158.34 386 -157.68 386 -157 386 C-157 385.34 -157 384.68 -157 384 C-155.63641055 383.04548739 -154.26411224 382.10151958 -152.85546875 381.21484375 C-150.06379111 379.38702955 -147.46306695 377.31935197 -144.83203125 375.26953125 C-143 374 -143 374 -140 373 C-139.175 372.175 -138.35 371.35 -137.5 370.5 C-135 368 -135 368 -132 367 C-131.71125 366.401875 -131.4225 365.80375 -131.125 365.1875 C-129.62793406 362.27653846 -127.65696113 360.85987279 -125 359 C-124.34 359 -123.68 359 -123 359 C-122.67 358.01 -122.34 357.02 -122 356 C-119.90887361 354.22990569 -117.81536961 352.57526394 -115.625 350.9375 C-101.96330582 340.94106679 -101.96330582 340.94106679 -93 327 C-92.34 327 -91.68 327 -91 327 C-90.87496094 326.10410156 -90.74992188 325.20820313 -90.62109375 324.28515625 C-89.98049553 319.80096872 -89.28425654 315.32563636 -88.59082031 310.84936523 C-87.87931526 306.25450246 -87.17535182 301.65849319 -86.47119141 297.0625 C-86.08321858 294.54087766 -85.68943948 292.0202937 -85.29296875 289.5 C-84.34023195 283.24894995 -83.78191228 277.32454377 -84 271 C-91.08041986 268.63986005 -99.3764477 269.93237851 -106.70556641 270.71264648 C-138.28813759 274.03460236 -168.07871827 272.03952584 -199 265 C-199 264.34 -199 263.68 -199 263 C-200.5159375 263.0928125 -200.5159375 263.0928125 -202.0625 263.1875 C-206.55499372 262.97357173 -209.01085961 261.95386468 -213 260 C-213 259.01 -213 258.02 -213 257 C-212.00097656 256.65066406 -211.00195312 256.30132812 -209.97265625 255.94140625 C-208.66921795 255.48192081 -207.3658354 255.02227721 -206.0625 254.5625 C-205.0734668 254.21735352 -205.0734668 254.21735352 -204.06445312 253.86523438 C-200.77671378 252.88035408 -200.77671378 252.88035408 -198 251 C-195.58882085 250.50050903 -193.16692739 250.10070108 -190.73828125 249.6953125 C-187.54361186 248.88411257 -184.94023915 247.48131338 -182 246 C-179.82887414 245.30109412 -177.63950116 244.6570148 -175.4375 244.0625 C-170.58556493 242.72102219 -165.75174321 241.34662662 -160.9375 239.875 C-159.40416016 239.40707031 -159.40416016 239.40707031 -157.83984375 238.9296875 C-154.99886825 238.03841685 -154.99886825 238.03841685 -152.3046875 236.890625 C-149.72397191 235.89333152 -147.7428275 235.843267 -145 236 C-145 235.34 -145 234.68 -145 234 C-138.30113651 232.0041421 -131.62254653 230.10383148 -124.79711914 228.59301758 C-98.06426199 222.9635586 -98.06426199 222.9635586 -77 208 C-76.57774728 205.43972635 -76.25311746 202.94434752 -76 200.3671875 C-75.87818359 199.24028 -75.87818359 199.24028 -75.75390625 198.09060669 C-75.49480416 195.68615799 -75.24654767 193.28076597 -75 190.875 C-74.75239153 188.49080129 -74.50225942 186.10695848 -74.24609375 183.72366333 C-74.08721517 182.2426683 -73.93321431 180.7611381 -73.78515625 179.27902222 C-73.40507248 175.70787059 -72.87175786 172.25919615 -72.0546875 168.76074219 C-70.72281479 163.02542688 -69.94081321 157.22588959 -69.125 151.3984375 C-68.95500488 150.20376862 -68.78500977 149.00909973 -68.60986328 147.77822876 C-68.06995013 143.97761077 -67.53497498 140.17631587 -67 136.375 C-66.64093367 133.84500826 -66.28156144 131.31505991 -65.921875 128.78515625 C-64.23024886 116.86352647 -62.5522633 104.94068333 -61 93 C-70.96930165 92.69523593 -77.53802252 93.51369294 -85.7265625 99.46484375 C-88 101 -88 101 -90.890625 102.40234375 C-94.31492701 104.16181551 -97.10451894 106.24040969 -100.125 108.625 C-101.27145337 109.52560849 -102.41860414 110.42532982 -103.56640625 111.32421875 C-104.1402002 111.77458496 -104.71399414 112.22495117 -105.30517578 112.68896484 C-107.85163431 114.65878367 -110.46149438 116.54057737 -113.0625 118.4375 C-117.84039852 122.00206377 -122.21584838 125.82887793 -126.55517578 129.90063477 C-130.71333172 133.79129499 -135.06534126 137.38969759 -139.52734375 140.9296875 C-142.11702483 143.02763584 -142.11702483 143.02763584 -144.69140625 145.7578125 C-147 148 -147 148 -149 148 C-147.64958977 138.66383048 -140.36468852 131.06377878 -134.68920898 123.82910156 C-131.49190211 119.72406675 -128.69985067 115.48338594 -125.9609375 111.06640625 C-112.64417752 90.24238915 -96.7661099 71.11878968 -80 53 C-79.46503906 52.41605469 -78.93007813 51.83210938 -78.37890625 51.23046875 C-77 50 -77 50 -75 50 C-74.67 49.01 -74.34 48.02 -74 47 C-72.4089357 45.56197818 -70.7513985 44.19674665 -69.0625 42.875 C-65.27491353 39.85859737 -61.61624048 36.78836376 -58.0625 33.5 C-44.83639934 21.47819285 -44.83639934 21.47819285 -38.39453125 18.99609375 C-35.55002351 17.81281565 -34.15092002 16.1799865 -32 14 C-29.4765625 12.54296875 -29.4765625 12.54296875 -26.625 11.1875 C-25.57699219 10.6821875 -24.52898437 10.176875 -23.44921875 9.65625 C-22.31097656 9.1096875 -21.17273438 8.563125 -20 8 C-18.73417475 7.36758145 -17.46987982 6.7320918 -16.20703125 6.09375 C-15.57909668 5.77639893 -14.95116211 5.45904785 -14.30419922 5.13208008 C-13.68818848 4.82036865 -13.07217773 4.50865723 -12.4375 4.1875 C-4.14569536 0 -4.14569536 0 0 0 Z " fill="#FBFBFB" transform="translate(411,2)"/>
<path d="M0 0 C0.72256485 0.0028299 1.4451297 0.00565979 2.18959045 0.00857544 C4.47162241 0.01966864 6.75324522 0.04475162 9.03515625 0.0703125 C10.59309324 0.08035639 12.15103646 0.08947976 13.70898438 0.09765625 C17.50536324 0.11957217 21.30144065 0.15402512 25.09765625 0.1953125 C25.09765625 3.1953125 25.09765625 3.1953125 23.8125 4.51953125 C23.22597656 4.96941406 22.63945312 5.41929687 22.03515625 5.8828125 C19.43477138 8.00336444 17.19186091 10.12597302 15.03515625 12.6953125 C11.47002428 16.8818895 7.653924 20.79172633 3.78515625 24.6953125 C3.16181396 25.33146484 2.53847168 25.96761719 1.89624023 26.62304688 C1.30657471 27.21408203 0.71690918 27.80511719 0.109375 28.4140625 C-0.42212158 28.94966797 -0.95361816 29.48527344 -1.5012207 30.03710938 C-2.90234375 31.1953125 -2.90234375 31.1953125 -4.90234375 31.1953125 C-4.90234375 31.8553125 -4.90234375 32.5153125 -4.90234375 33.1953125 C-6.61258851 34.80392981 -8.39673204 36.33469593 -10.21484375 37.8203125 C-11.20097656 38.63757813 -12.18710937 39.45484375 -13.203125 40.296875 C-15.90234375 42.1953125 -15.90234375 42.1953125 -18.90234375 42.1953125 C-18.45471942 28.68940607 -17.01363807 15.54028603 -14.90234375 2.1953125 C-9.83691582 0.53083419 -5.34595332 -0.08047765 0 0 Z " fill="#070707" transform="translate(402.90234375,251.8046875)"/>
<path d="M0 0 C-4.47018614 2.47653831 -8.47894212 3.66952731 -13.5 4.5625 C-18.17624694 5.40365418 -22.51635117 6.43662245 -27 8 C-33.44346504 10.21202484 -39.80479701 10.65763192 -46.578125 11.109375 C-48.41917816 11.23551178 -48.41917816 11.23551178 -50.29742432 11.36419678 C-62.86872144 12.15858682 -75.42066332 12.30375562 -88.01367188 12.26074219 C-91.79052321 12.24988349 -95.56691158 12.26079618 -99.34375 12.2734375 C-111.70930473 12.27949964 -123.78856383 12.08836014 -136 10 C-136 9.67 -136 9.34 -136 9 C-125.59924814 8.86234299 -115.25596019 9.13535436 -104.8671875 9.64428711 C-92.28973971 10.23622907 -79.84462616 9.94262945 -67.28540039 9.20043945 C-64.90995661 9.06088182 -62.53414837 8.92954041 -60.15820312 8.79882812 C-58.63538874 8.71142264 -57.11260111 8.62354956 -55.58984375 8.53515625 C-54.88568832 8.49656998 -54.1815329 8.4579837 -53.45603943 8.41822815 C-50.18726893 8.2198277 -47.15297925 7.88241915 -44 7 C-41.91791031 6.87338644 -39.83421055 6.77232252 -37.75 6.6875 C-31.41069029 6.28963537 -25.61047406 5.10408114 -19.50683594 3.37182617 C-15.55999005 2.27430484 -12.09413355 1.80413867 -8 2 C-8 1.34 -8 0.68 -8 0 C-4.71303767 -0.79953138 -3.28976808 -1.09658936 0 0 Z " fill="#474747" transform="translate(416,655)"/>
<path d="M0 0 C1.85625 0.0309375 1.85625 0.0309375 3.75 0.0625 C-0.64765232 2.47741018 -4.9620468 2.97841397 -9.875 3.6875 C-10.72707031 3.8215625 -11.57914062 3.955625 -12.45703125 4.09375 C-18.42451168 4.97848991 -24.22183354 5.22236833 -30.25 5.0625 C-30.25 5.7225 -30.25 6.3825 -30.25 7.0625 C-50.55538212 9.70476464 -70.63193763 11.46359128 -91.125 11.375 C-92.02804871 11.37218018 -92.93109741 11.36936035 -93.86151123 11.36645508 C-96.4469299 11.35394946 -99.03191717 11.33084142 -101.6171875 11.30078125 C-102.75250916 11.28945915 -102.75250916 11.28945915 -103.9107666 11.27790833 C-108.75704869 11.19247315 -113.44925507 10.73549846 -118.25 10.0625 C-118.25 9.7325 -118.25 9.4025 -118.25 9.0625 C-117.3703508 9.0470388 -117.3703508 9.0470388 -116.47293091 9.03126526 C-110.27403019 8.92163599 -104.07523043 8.80720084 -97.87646484 8.69018555 C-95.57440336 8.64732887 -93.27232 8.60562838 -90.97021484 8.56518555 C-65.74009755 8.23347942 -65.74009755 8.23347942 -40.625 6 C-39.89539063 5.90912109 -39.16578125 5.81824219 -38.4140625 5.72460938 C-36.69201862 5.50935389 -34.97088032 5.28686794 -33.25 5.0625 C-33.25 4.4025 -33.25 3.7425 -33.25 3.0625 C-32.14543457 2.97947632 -32.14543457 2.97947632 -31.01855469 2.89477539 C-27.67875623 2.64173642 -24.33938571 2.38342667 -21 2.125 C-19.84113281 2.03798828 -18.68226563 1.95097656 -17.48828125 1.86132812 C-16.37324219 1.77431641 -15.25820313 1.68730469 -14.109375 1.59765625 C-13.08295898 1.519104 -12.05654297 1.44055176 -10.99902344 1.35961914 C-7.21115135 0.95021947 -3.83613377 -0.06393556 0 0 Z " fill="#4D4D4D" transform="translate(406.25,723.9375)"/>
<path d="M0 0 C1.0859697 0.00212242 1.0859697 0.00212242 2.19387817 0.00428772 C4.48606657 0.0098455 6.77815407 0.02238992 9.0703125 0.03515625 C10.63281108 0.04017672 12.19531121 0.04473866 13.7578125 0.04882812 C17.57035085 0.05980106 21.38281462 0.07703615 25.1953125 0.09765625 C25.1953125 1.08765625 25.1953125 2.07765625 25.1953125 3.09765625 C24.2053125 3.42765625 23.2153125 3.75765625 22.1953125 4.09765625 C22.1953125 3.43765625 22.1953125 2.77765625 22.1953125 2.09765625 C9.9853125 2.75765625 -2.2246875 3.41765625 -14.8046875 4.09765625 C-14.4746875 3.10765625 -14.1446875 2.11765625 -13.8046875 1.09765625 C-9.17364187 0.18719898 -4.70291323 -0.03513423 0 0 Z " fill="#525252" transform="translate(402.8046875,251.90234375)"/>
<path d="M0 0 C0.66 0.33 1.32 0.66 2 1 C-5.53275344 9.13807836 -13.06295183 17.25192917 -21 25 C-21.99 24.67 -22.98 24.34 -24 24 C-22.09042286 21.86823936 -20.17291237 19.7446755 -18.25 17.625 C-17.71117187 17.02171875 -17.17234375 16.4184375 -16.6171875 15.796875 C-16.08867187 15.21679688 -15.56015625 14.63671875 -15.015625 14.0390625 C-14.53383789 13.50490723 -14.05205078 12.97075195 -13.55566406 12.42041016 C-12 11 -12 11 -9.87402344 9.99755859 C-7.64665274 9.08802372 -7.64665274 9.08802372 -7 6 C-5.37109375 4.39453125 -5.37109375 4.39453125 -3.4375 2.8125 C-2.47650391 2.01779297 -2.47650391 2.01779297 -1.49609375 1.20703125 C-1.00238281 0.80871094 -0.50867188 0.41039062 0 0 Z " fill="#CFCFCF" transform="translate(344,43)"/>
<path d="M0 0 C-0.55869369 3.44037693 -1.47255562 4.69710633 -4.25 6.75 C-7.76535095 9.56516811 -9.80271687 12.53464441 -11.95703125 16.4609375 C-12.30121094 16.96882813 -12.64539063 17.47671875 -13 18 C-13.66 18 -14.32 18 -15 18 C-15 17.34 -15 16.68 -15 16 C-16.32 16.33 -17.64 16.66 -19 17 C-18.06409496 15.8944811 -17.12620142 14.79064547 -16.1875 13.6875 C-15.66542969 13.07261719 -15.14335937 12.45773437 -14.60546875 11.82421875 C-11.6626898 8.48047722 -11.6626898 8.48047722 -10 7 C-9.34 7 -8.68 7 -8 7 C-8 6.34 -8 5.68 -8 5 C-2.52380952 0 -2.52380952 0 0 0 Z " fill="#989898" transform="translate(200,480)"/>
<path d="M0 0 C-4.47018614 2.47653831 -8.47894212 3.66952731 -13.5 4.5625 C-18.16842823 5.40224776 -22.53402634 6.3963385 -27 8 C-33.10692583 10.15538559 -38.60840281 10.20804475 -45 10 C-45 9.67 -45 9.34 -45 9 C-44.34515625 8.85900879 -43.6903125 8.71801758 -43.015625 8.57275391 C-40.01012398 7.92485194 -37.00506087 7.27494026 -34 6.625 C-32.45505859 6.29242187 -32.45505859 6.29242187 -30.87890625 5.953125 C-26.38984435 4.98097147 -21.91479133 3.99828654 -17.46875 2.84375 C-14.16210054 2.03942986 -11.3854864 1.83072568 -8 2 C-8 1.34 -8 0.68 -8 0 C-4.71303767 -0.79953138 -3.28976808 -1.09658936 0 0 Z " fill="#B6B6B6" transform="translate(416,655)"/>
<path d="M0 0 C0.33 0.66 0.66 1.32 1 2 C0.67 2.66 0.34 3.32 0 4 C1.60101563 4.03867187 1.60101563 4.03867187 3.234375 4.078125 C15.14386614 4.49005455 26.38540234 6.39338361 38 9 C38 9.33 38 9.66 38 10 C32.19179701 10.22339242 26.94253562 9.53917312 21.23046875 8.50390625 C16.83563322 7.81837568 12.44738647 7.56628504 8.0078125 7.34375 C4.78661596 6.97561325 2.03345046 6.12282942 -1 5 C-0.67 3.35 -0.34 1.7 0 0 Z " fill="#666666" transform="translate(450,316)"/>
<path d="M0 0 C6.38509998 0.32948025 11.35279912 0.77302807 17 4 C19.73572585 4.69907414 19.73572585 4.69907414 22 5 C22 5.66 22 6.32 22 7 C22.7425 6.95875 23.485 6.9175 24.25 6.875 C27.08758952 7.00398134 28.58773938 7.57051222 31 9 C31 9.66 31 10.32 31 11 C31.66 11.33 32.32 11.66 33 12 C27.43657574 11.42939238 22.99159296 9.35053848 18 7 C12.14311275 4.28847813 6.23470608 2.58968094 0 1 C0 0.67 0 0.34 0 0 Z " fill="#595959" transform="translate(501,329)"/>
<path d="M0 0 C0 3.55667471 -0.50978041 3.92562289 -2.8515625 6.43359375 C-3.45613281 7.08263672 -4.06070312 7.73167969 -4.68359375 8.40039062 C-5.32425781 9.07263672 -5.96492188 9.74488281 -6.625 10.4375 C-7.24246094 11.10587891 -7.85992187 11.77425781 -8.49609375 12.46289062 C-13.16062249 17.41711115 -17.77648874 21.12761019 -24 24 C-22.38405168 21.95880212 -20.7143618 19.95927063 -19 18 C-18.34 18 -17.68 18 -17 18 C-17 17.34 -17 16.68 -17 16 C-15.56640625 14.58984375 -15.56640625 14.58984375 -13.5625 12.9375 C-8.77658299 8.87931634 -4.3885623 4.47999069 0 0 Z " fill="#B0B0B0" transform="translate(415,267)"/>
<path d="M0 0 C0.33 0 0.66 0 1 0 C1 3.3 1 6.6 1 10 C2.05127075 9.86368164 2.05127075 9.86368164 3.1237793 9.72460938 C6.31127556 9.31314937 9.49937108 8.90652764 12.6875 8.5 C13.79029297 8.35691406 14.89308594 8.21382812 16.02929688 8.06640625 C17.09599609 7.93105469 18.16269531 7.79570312 19.26171875 7.65625 C20.24100342 7.53056641 21.22028809 7.40488281 22.22924805 7.27539062 C24.84232089 7.01567205 27.37635968 6.94974671 30 7 C27.20269815 9.79730185 24.88865582 9.58837086 21 10.0625 C16.34500113 10.50539997 16.34500113 10.50539997 12 12 C10.1478437 12.09584979 8.29212847 12.12983606 6.4375 12.125 C5.44621094 12.12757813 4.45492188 12.13015625 3.43359375 12.1328125 C1 12 1 12 0 11 C-0.07226502 9.14712498 -0.0838122 7.29166122 -0.0625 5.4375 C-0.05347656 4.42558594 -0.04445313 3.41367188 -0.03515625 2.37109375 C-0.02355469 1.58863281 -0.01195312 0.80617187 0 0 Z " fill="#464646" transform="translate(394,188)"/>
<path d="M0 0 C0.33 0 0.66 0 1 0 C1.02901394 3.4374823 1.04680335 6.87493312 1.0625 10.3125 C1.07087891 11.28896484 1.07925781 12.26542969 1.08789062 13.27148438 C1.09111328 14.20927734 1.09433594 15.14707031 1.09765625 16.11328125 C1.10289307 16.97735596 1.10812988 17.84143066 1.11352539 18.73168945 C1 21 1 21 0 24 C-0.38503552 26.72897438 -0.7398891 29.45128163 -1.0625 32.1875 C-1.15337891 32.93708984 -1.24425781 33.68667969 -1.33789062 34.45898438 C-1.5613731 36.30565535 -1.78105513 38.15278554 -2 40 C-2.33 40 -2.66 40 -3 40 C-2.45847443 26.60436752 -1.46027528 13.32678407 0 0 Z " fill="#676767" transform="translate(398,138)"/>
<path d="M0 0 C0 0.66 0 1.32 0 2 C-0.969375 2.268125 -1.93875 2.53625 -2.9375 2.8125 C-5.80246955 3.62693691 -8.61944111 4.53618472 -11.4375 5.5 C-17.52778249 7.55080941 -23.6354604 9.04531906 -30 10 C-26.30827405 6.46209597 -22.90609405 6.40884117 -18 6 C-18 5.34 -18 4.68 -18 4 C-15.75194998 3.32678716 -13.50147776 2.66165877 -11.25 2 C-9.99703125 1.62875 -8.7440625 1.2575 -7.453125 0.875 C-4 0 -4 0 0 0 Z " fill="#9F9F9F" transform="translate(284,232)"/>
<path d="M0 0 C7.12579478 -0.34591237 13.55937879 0.96409698 20.5 2.5 C22.16289062 2.85771484 22.16289062 2.85771484 23.859375 3.22265625 C26.57458379 3.80783056 29.28793866 4.40043799 32 5 C32 5.33 32 5.66 32 6 C21.06762655 6.43729494 10.32046872 4.56698228 0 1 C0 0.67 0 0.34 0 0 Z " fill="#797979" transform="translate(224,656)"/>
<path d="M0 0 C0 0.33 0 0.66 0 1 C-7.33365604 3.47379307 -14.79768987 4.68416853 -22.4375 5.75 C-23.40896973 5.88962158 -24.38043945 6.02924316 -25.38134766 6.1730957 C-26.30608887 6.29644287 -27.23083008 6.41979004 -28.18359375 6.546875 C-29.01431396 6.65870117 -29.84503418 6.77052734 -30.70092773 6.88574219 C-33.03446525 7.00171283 -34.78029311 6.69024942 -37 6 C-35.38544922 5.72736328 -35.38544922 5.72736328 -33.73828125 5.44921875 C-26.73125282 4.24808293 -19.78419963 3.00553608 -12.875 1.3125 C-8.42265865 0.23991589 -4.56446366 -0.31845095 0 0 Z " fill="#D4D4D4" transform="translate(421,720)"/>
<path d="M0 0 C9.63401065 0.41615597 18.69393547 2.65439171 28 5 C28 5.33 28 5.66 28 6 C18.41289437 6.49588477 8.83596816 4.82006142 0 1 C0 0.67 0 0.34 0 0 Z " fill="#444444" transform="translate(226,722)"/>
<path d="M0 0 C0.33 0.66 0.66 1.32 1 2 C-2.43386394 7.58916151 -5.60011615 12.19553638 -11 16 C-11.66 16 -12.32 16 -13 16 C-11.48099978 12.3758636 -9.31929546 10.142376 -6.5 7.4375 C-3.97190847 5.0038015 -1.95327066 2.92990599 0 0 Z " fill="#434343" transform="translate(589,624)"/>
<path d="M0 0 C-2 2 -2 2 -3.9375 2.4375 C-6.05027248 2.82524618 -6.05027248 2.82524618 -7.2890625 4.33203125 C-9.46432472 6.45266359 -11.78797691 7.76885548 -14.4375 9.25 C-15.85869141 10.06210937 -15.85869141 10.06210937 -17.30859375 10.890625 C-20.28627857 12.11800162 -21.05251964 11.91610345 -24 11 C-22.92878906 10.44570313 -21.85757812 9.89140625 -20.75390625 9.3203125 C-19.35661281 8.58884345 -17.95948596 7.85705611 -16.5625 7.125 C-15.85544922 6.76019531 -15.14839844 6.39539063 -14.41992188 6.01953125 C-10.55990332 4.2119682 -10.55990332 4.2119682 -8 1 C-2.47058824 -1.23529412 -2.47058824 -1.23529412 0 0 Z " fill="#757575" transform="translate(526,679)"/>
<path d="M0 0 C0.33 0.99 0.66 1.98 1 3 C0.38125 3.2475 -0.2375 3.495 -0.875 3.75 C-3.11738845 4.80962759 -3.11738845 4.80962759 -3.9375 6.875 C-5.4027072 9.80541439 -7.28893656 11.21466554 -10 13 C-10.99 12.67 -11.98 12.34 -13 12 C-12.0479279 10.99403703 -11.08812654 9.99538437 -10.125 9 C-9.32449219 8.1646875 -9.32449219 8.1646875 -8.5078125 7.3125 C-7 6 -7 6 -5 6 C-5 5.34 -5 4.68 -5 4 C-3.37373596 2.61767557 -1.7074998 1.28062485 0 0 Z " fill="#C0C0C0" transform="translate(509,599)"/>
<path d="M0 0 C0.66 0.33 1.32 0.66 2 1 C0.61240749 2.61130023 -0.78545623 4.21375841 -2.1875 5.8125 C-2.96480469 6.70582031 -3.74210937 7.59914063 -4.54296875 8.51953125 C-7.93366653 11.94257273 -11.69533228 13.92738221 -16 16 C-15.04882866 14.8274869 -14.08882991 13.66212985 -13.125 12.5 C-12.59132813 11.8503125 -12.05765625 11.200625 -11.5078125 10.53125 C-10.76144531 9.77328125 -10.76144531 9.77328125 -10 9 C-9.34 9 -8.68 9 -8 9 C-7.67 8.01 -7.34 7.02 -7 6 C-5.37109375 4.39453125 -5.37109375 4.39453125 -3.4375 2.8125 C-2.79683594 2.28269531 -2.15617187 1.75289062 -1.49609375 1.20703125 C-1.00238281 0.80871094 -0.50867188 0.41039062 0 0 Z " fill="#A5A5A5" transform="translate(344,43)"/>
<path d="M0 0 C0.12375 0.639375 0.2475 1.27875 0.375 1.9375 C0.684375 2.9584375 0.684375 2.9584375 1 4 C1.66 4.33 2.32 4.66 3 5 C2.0479279 6.00596297 1.08812654 7.00461563 0.125 8 C-0.40867187 8.556875 -0.94234375 9.11375 -1.4921875 9.6875 C-3 11 -3 11 -5 11 C-4.46884894 6.48521602 -2.63379708 3.65333143 0 0 Z " fill="#BEBEBE" transform="translate(267,139)"/>
<path d="M0 0 C0.33 1.32 0.66 2.64 1 4 C0.01 4.33 -0.98 4.66 -2 5 C-1.67 6.65 -1.34 8.3 -1 10 C-1.78375 10.5775 -2.5675 11.155 -3.375 11.75 C-5.80047244 13.82897637 -6.85694417 15.09040333 -8 18 C-8.33 17.34 -8.66 16.68 -9 16 C-7.890625 13.3203125 -7.890625 13.3203125 -6.25 10.125 C-5.45335937 8.55105469 -5.45335937 8.55105469 -4.640625 6.9453125 C-3.24412652 4.43826522 -1.79111049 2.2334932 0 0 Z " fill="#565656" transform="translate(357,410)"/>
<path d="M0 0 C-4.4853554 2.47180576 -8.60632113 3.76436768 -13.625 4.75 C-15.56246094 5.14445313 -15.56246094 5.14445313 -17.5390625 5.546875 C-20.5416664 5.93999244 -22.21948327 6.04445806 -25 5 C-13.47835991 1.55580866 -13.47835991 1.55580866 -8 2 C-8 1.34 -8 0.68 -8 0 C-4.71303767 -0.79953138 -3.28976808 -1.09658936 0 0 Z " fill="#828282" transform="translate(416,655)"/>
<path d="M0 0 C2.0625 0.4375 2.0625 0.4375 4 1 C-2.24161903 4.58125682 -6.75420281 6.67090715 -14 6 C-11.14585217 4.09723478 -9.1305318 3.34392358 -5.875 2.4375 C-2.65831713 1.72262118 -2.65831713 1.72262118 0 0 Z " fill="#8E8E8E" transform="translate(430,648)"/>
<path d="M0 0 C-15.52927241 6.32219391 -15.52927241 6.32219391 -20 5 C-5.64947365 -1.70342047 -5.64947365 -1.70342047 0 0 Z " fill="#9E9E9E" transform="translate(240,247)"/>
<path d="M0 0 C0 4.38100054 -1.77085137 7.6342793 -4.6875 10.875 C-5.3371875 11.431875 -5.3371875 11.431875 -6 12 C-6.99 11.67 -7.98 11.34 -9 11 C-6.03 7.37 -3.06 3.74 0 0 Z " fill="#B1B1B1" transform="translate(163,514)"/>
<path d="M0 0 C0 0.66 0 1.32 0 2 C-2.12437048 2.50266794 -4.24951726 3.0020561 -6.375 3.5 C-7.55835938 3.7784375 -8.74171875 4.056875 -9.9609375 4.34375 C-13 5 -13 5 -15 5 C-15 4.34 -15 3.68 -15 3 C-13.25183142 2.49363393 -11.50137737 1.99515381 -9.75 1.5 C-8.77546875 1.2215625 -7.8009375 0.943125 -6.796875 0.65625 C-4 0 -4 0 0 0 Z " fill="#585858" transform="translate(396,383)"/>
<path d="M0 0 C1.32 0.33 2.64 0.66 4 1 C4 1.33 4 1.66 4 2 C7.02734375 2.68359375 7.02734375 2.68359375 10.0546875 3.3671875 C12 4 12 4 14 6 C8.34605369 6.34615998 4.96993194 5.43425238 0 3 C0 2.01 0 1.02 0 0 Z " fill="#ACACAC" transform="translate(198,259)"/>
<path d="M0 0 C0 3.69418201 -1.28179295 5.77836178 -3 9 C-3.66 9 -4.32 9 -5 9 C-5.2165625 9.928125 -5.2165625 9.928125 -5.4375 10.875 C-6 13 -6 13 -7 15 C-7.66 15 -8.32 15 -9 15 C-7.58399311 8.86397012 -3.9336625 4.73301638 0 0 Z " fill="#A2A2A2" transform="translate(293,102)"/>
<path d="M0 0 C1.41750563 0.11509661 2.83401169 0.24253658 4.25 0.375 C5.03890625 0.44460938 5.8278125 0.51421875 6.640625 0.5859375 C9.085877 1.01507113 10.84836903 1.78600638 13 3 C13 3.66 13 4.32 13 5 C13.66 5.33 14.32 5.66 15 6 C9.45949887 5.43174347 4.96284034 3.37113483 0 1 C0 0.67 0 0.34 0 0 Z " fill="#797979" transform="translate(519,335)"/>
<path d="M0 0 C-1 2 -2 4 -3 6 C-2.10836423 8.11683841 -2.10836423 8.11683841 -1 10 C-3 9 -5 8 -7 7 C-6.67 5.68 -6.34 4.36 -6 3 C-5.34 3 -4.68 3 -4 3 C-4 2.34 -4 1.68 -4 1 C-2 0 -2 0 0 0 Z " fill="#9D9D9D" transform="translate(258,385)"/>
<path d="M0 0 C-2.69728168 3.33193619 -6.02060187 4.60371996 -10 6 C-12.4375 5.6875 -12.4375 5.6875 -14 5 C-9.375 2 -9.375 2 -6 2 C-6 1.34 -6 0.68 -6 0 C-2.25 -1.125 -2.25 -1.125 0 0 Z " fill="#888888" transform="translate(454,640)"/>
<path d="M0 0 C0.33 0.66 0.66 1.32 1 2 C0.67 2.66 0.34 3.32 0 4 C1.01320313 4.07347656 1.01320313 4.07347656 2.046875 4.1484375 C2.93890625 4.22320312 3.8309375 4.29796875 4.75 4.375 C6.07257813 4.47941406 6.07257813 4.47941406 7.421875 4.5859375 C9.99066382 4.99850055 11.75841015 5.71160957 14 7 C8.5610835 7.21755666 4.12919186 7.10428384 -1 5 C-0.67 3.35 -0.34 1.7 0 0 Z " fill="#ABABAB" transform="translate(450,316)"/>
<path d="M0 0 C-0.17625835 2.37948772 -0.69719773 3.70225849 -2.40234375 5.37890625 C-3.90649092 6.62115486 -5.45129851 7.81376056 -7 9 C-7.33 7.68 -7.66 6.36 -8 5 C-2.25 0 -2.25 0 0 0 Z " fill="#909090" transform="translate(200,480)"/>
<path d="M0 0 C0.66 0.33 1.32 0.66 2 1 C1.09515208 2.15518918 0.1755794 3.29885406 -0.75 4.4375 C-1.26046875 5.07558594 -1.7709375 5.71367187 -2.296875 6.37109375 C-4.19667629 8.18810554 -5.43586908 8.60423197 -8 9 C-8 8.34 -8 7.68 -8 7 C-7.34 7 -6.68 7 -6 7 C-5.7525 6.401875 -5.505 5.80375 -5.25 5.1875 C-3.83629988 2.71352479 -2.34944617 1.56629745 0 0 Z " fill="#4C4C4C" transform="translate(374,390)"/>
<path d="M0 0 C1.0326802 2.78823655 1.04509293 3.8677274 0.0625 6.75 C-0.288125 7.4925 -0.63875 8.235 -1 9 C-1.99 9 -2.98 9 -4 9 C-4.33 6.36 -4.66 3.72 -5 1 C-4.01 2.32 -3.02 3.64 -2 5 C-1.34 3.35 -0.68 1.7 0 0 Z " fill="#9D9D9D" transform="translate(314,515)"/>
<path d="M0 0 C0.33 1.32 0.66 2.64 1 4 C-1.64 5.98 -4.28 7.96 -7 10 C-4.98127747 5.96255494 -2.91899872 3.37989325 0 0 Z " fill="#4C4C4C" transform="translate(477,282)"/>
<path d="M0 0 C0.33 0.66 0.66 1.32 1 2 C0.67 2.66 0.34 3.32 0 4 C0.66 4.33 1.32 4.66 2 5 C-0.64 6.65 -3.28 8.3 -6 10 C-4.6302836 6.00499382 -2.74277578 3.19990508 0 0 Z " fill="#B1B1B1" transform="translate(274,129)"/>
<path d="M0 0 C-5.36439644 2.68219822 -9.01006953 3.3152595 -15 3 C-15 2.67 -15 2.34 -15 2 C-13.25364835 1.46706165 -11.50272348 0.94909337 -9.75 0.4375 C-8.77546875 0.14746094 -7.8009375 -0.14257812 -6.796875 -0.44140625 C-4.03756068 -0.99249836 -2.6087176 -0.93789609 0 0 Z " fill="#545454" transform="translate(425,721)"/>
<path d="M0 0 C0.57234375 0.21527344 1.1446875 0.43054688 1.734375 0.65234375 C0.49493224 1.52175869 -0.75769559 2.37239832 -2.015625 3.21484375 C-2.71171875 3.69050781 -3.4078125 4.16617188 -4.125 4.65625 C-6.265625 5.65234375 -6.265625 5.65234375 -8.53125 5.3046875 C-9.10359375 5.08941406 -9.6759375 4.87414062 -10.265625 4.65234375 C-9.02618224 3.78292881 -7.77355441 2.93228918 -6.515625 2.08984375 C-5.81953125 1.61417969 -5.1234375 1.13851562 -4.40625 0.6484375 C-2.265625 -0.34765625 -2.265625 -0.34765625 0 0 Z " fill="#535353" transform="translate(500.265625,691.34765625)"/>
<path d="M0 0 C0.66 0.33 1.32 0.66 2 1 C-0.88341534 5.21422242 -3.04303419 6.76075855 -8 8 C-5.58443874 4.80800833 -3.31996462 2.25283313 0 0 Z " fill="#616161" transform="translate(298,119)"/>
<path d="M0 0 C0.33 0.66 0.66 1.32 1 2 C1.66 2 2.32 2 3 2 C1.60210322 4.79579355 -0.2628997 5.59807058 -3 7 C-3.66 6.67 -4.32 6.34 -5 6 C-3.35 4.02 -1.7 2.04 0 0 Z " fill="#3F3F3F" transform="translate(489,267)"/>
<path d="M0 0 C0.33 0.66 0.66 1.32 1 2 C1.66 2.33 2.32 2.66 3 3 C-1.75 7 -1.75 7 -4 7 C-2.92598892 4.08482708 -2.22189824 2.22189824 0 0 Z " fill="#444444" transform="translate(465,297)"/>
<path d="M0 0 C-1.61992165 0.86375896 -3.24611861 1.71575854 -4.875 2.5625 C-6.23238281 3.27599609 -6.23238281 3.27599609 -7.6171875 4.00390625 C-8.40351563 4.33261719 -9.18984375 4.66132813 -10 5 C-10.66 4.67 -11.32 4.34 -12 4 C-3.69811321 -1.8490566 -3.69811321 -1.8490566 0 0 Z " fill="#4B4B4B" transform="translate(405,4)"/>
<path d="M0 0 C0 4.38968456 -2.12805101 5.76905739 -5 9 C-5.33 8.01 -5.66 7.02 -6 6 C-4.02 4.02 -2.04 2.04 0 0 Z " fill="#DCDCDC" transform="translate(192,487)"/>
<path d="M0 0 C0 0.99 0 1.98 0 3 C-4.455 4.485 -4.455 4.485 -9 6 C-3.2 0 -3.2 0 0 0 Z " fill="#6A6A6A" transform="translate(539,670)"/>
<path d="M0 0 C-3.00617269 3.00617269 -5.82381598 2.59585316 -10 3 C-7.29536552 -0.8183075 -4.37912428 -0.24787496 0 0 Z " fill="#8B8B8B" transform="translate(220,253)"/>
</svg>
