<?xml version="1.0" encoding="UTF-8"?>
<svg version="1.1" xmlns="http://www.w3.org/2000/svg" width="736" height="740">
<path d="M0 0 C242.88 0 485.76 0 736 0 C736 244.2 736 488.4 736 740 C493.12 740 250.24 740 0 740 C0 495.8 0 251.6 0 0 Z " fill="#010101" transform="translate(0,0)"/>
<path d="M0 0 C0.17450087 9.32610184 -0.29233568 18.3657097 -1.375 27.625 C-2.41833732 37.05785493 -3.28449534 46.46594755 -3.875 55.9375 C-4.69307653 68.69222628 -6.07966335 81.36337887 -7.5 94.0625 C-9.3559709 110.69770839 -10.96967832 127.2902332 -12 144 C-12.21906091 147.45591853 -12.43873805 150.91179397 -12.66004944 154.36756897 C-12.87939901 157.79548708 -13.09507714 161.22348797 -13.3034668 164.65209961 C-13.94123647 174.93235528 -13.94123647 174.93235528 -14.5546875 179.45703125 C-15.00172122 183.01369425 -15.09981178 186.41806875 -15.0625 190 C-15.04896484 191.7015625 -15.04896484 191.7015625 -15.03515625 193.4375 C-15.02355469 194.283125 -15.01195312 195.12875 -15 196 C-9.1530879 196.193464 -3.74974998 196.2479291 1.88842773 194.5871582 C10.60182313 192.16425198 19.68561336 191.02736814 28.60018921 189.57019043 C40.81596109 187.57008886 53.01628568 185.50736314 65.1875 183.25 C66.2592749 183.05172607 67.3310498 182.85345215 68.43530273 182.64916992 C72.93626724 181.80512631 77.41361234 180.92061881 81.875 179.88671875 C86.94515402 178.74278343 91.82822745 178.19587825 97 179 C100.69255486 181.95404389 101.83478793 185.82356576 103.19140625 190.23046875 C103.9799593 192.36670146 103.9799593 192.36670146 107 194 C107.433125 195.11375 107.433125 195.11375 107.875 196.25 C108.93420738 199.23618674 108.93420738 199.23618674 111.5625 202.0625 C113.77979696 204.7346271 114.40133066 205.76718556 115 209 C115.66 209.33 116.32 209.66 117 210 C118.15178038 213.27348107 118.57018256 214.66416558 118 218 C115.43721588 222.06510584 112.26588838 225.48878667 109 229 C107.68269503 230.47488911 106.3695908 231.95355124 105.0625 233.4375 C104.51722656 234.03433594 103.97195313 234.63117188 103.41015625 235.24609375 C101.94039687 237.07413243 101.03174225 238.90226679 100 241 C98.86126681 242.17222534 97.71683077 243.33965694 96.5390625 244.47265625 C88.65776903 252.29393987 80.83591602 261.13282484 75.0625 270.625 C73 274 73 274 71 275 C70.5978125 275.86625 70.5978125 275.86625 70.1875 276.75 C68.6136153 279.73209733 66.39149717 281.61860774 64 284 C62.1006227 286.1081705 60.26668062 288.26836071 58.4375 290.4375 C57.96892578 290.98470703 57.50035156 291.53191406 57.01757812 292.09570312 C54.06897132 295.58042026 51.52884626 299.19364134 49 303 C47.2455878 305.0135026 45.42924435 306.94315003 43.5859375 308.875 C41.66898548 311.44352684 40.87895542 313.93670981 40 317 C40.97453125 317.00257813 41.9490625 317.00515625 42.953125 317.0078125 C53.02222131 317.21781294 62.5922319 318.70317148 72.4375 320.8125 C74.19465332 321.1849585 74.19465332 321.1849585 75.98730469 321.56494141 C82.39211566 322.99055178 88.4784025 324.75706167 94.6081543 327.09643555 C97.59238223 328.22378347 100.62203394 329.12078822 103.6875 330 C108.08506134 331.32756569 112.03750564 332.84265314 116.07421875 335.015625 C118.17338945 336.08862909 120.29508304 336.91630006 122.5 337.75 C127.88859644 339.84371162 132.98856682 342.43580232 138.11523438 345.09472656 C141.48458867 346.82316156 144.7861419 348.31726152 148.3671875 349.55859375 C152 351 152 351 154 354 C155.0725 354.4125 156.145 354.825 157.25 355.25 C161.06572604 356.76055546 162.89445108 358.92806099 165.3984375 362.1015625 C167.66650393 364.79005101 170.28296174 366.97139941 172.97265625 369.2265625 C191.17364965 385.14804806 203.5824517 404.20385016 211 427 C211.67844226 429.04342048 212.36051761 431.08560106 213.04296875 433.12768555 C213.67060155 435.01177264 214.29048799 436.89843466 214.91015625 438.78515625 C215.74209846 441.23923669 216.63302808 443.61001584 217.625 446 C227.57569164 472.87248928 226.38438618 508.1465144 221 536 C220.74458979 537.42290794 220.49064292 538.84607947 220.23828125 540.26953125 C219.0787565 546.56893766 217.56663195 552.10220744 215 558 C214.42944066 560.3250293 214.02097553 562.6250208 213.625 564.984375 C212.87901551 567.39017497 211.78607279 568.26329103 210 570 C208.95670847 572.08248273 208.95670847 572.08248273 208.125 574.4375 C207.78726562 575.31921875 207.44953125 576.2009375 207.1015625 577.109375 C206.73804688 578.06328125 206.37453125 579.0171875 206 580 C203.36458732 586.61371081 200.62524017 592.8745942 197 599 C196.70351563 599.79277344 196.40703125 600.58554687 196.1015625 601.40234375 C194.91045549 604.21115993 193.4633877 606.24582442 191.5625 608.625 C190.96566406 609.38039063 190.36882812 610.13578125 189.75390625 610.9140625 C188.23329016 612.72254578 186.77838546 614.44453194 185 616 C184.34 616 183.68 616 183 616 C182.78085937 616.53753906 182.56171875 617.07507813 182.3359375 617.62890625 C180.54194161 620.81298668 178.1237784 623.30391908 175.625 625.9375 C172.94672465 628.7840627 170.31741573 631.5998567 167.88671875 634.6640625 C166.11479574 636.85787194 164.33193143 638.6162619 162.1875 640.4375 C161.49527344 641.03046875 160.80304688 641.6234375 160.08984375 642.234375 C159.40019531 642.81703125 158.71054687 643.3996875 158 644 C156.74906519 645.06139924 155.49900535 646.12383093 154.25 647.1875 C153.71890625 647.63480469 153.1878125 648.08210937 152.640625 648.54296875 C151.42807809 649.61982588 150.26522086 650.75322548 149.1328125 651.9140625 C141.82778747 659.05853753 132.83374471 664.5656882 124.20703125 669.98046875 C122.2920552 671.18636719 120.38876298 672.41164942 118.51171875 673.67578125 C114.92163623 676.07593058 112.40006657 677.6875104 108 677 C107.67 677.99 107.34 678.98 107 680 C104.60016923 681.47794456 102.25507679 682.79109097 99.75 684.0625 C99.08097656 684.41376953 98.41195313 684.76503906 97.72265625 685.12695312 C94.20663497 686.95404081 90.68729508 688.54345284 87 690 C86.05125 690.598125 85.1025 691.19625 84.125 691.8125 C79.32584346 694.66233026 73.92886999 696.04816221 68.62109375 697.65625 C64.94512668 699.02036292 62.2350869 700.81718599 59 703 C56.09765625 704.0546875 56.09765625 704.0546875 53.0625 704.875 C48.10891515 706.30316181 43.37495246 708.00928402 38.625 710 C31.24561966 713.04816997 23.75266027 715.08980845 16 717 C14.77023437 717.33902344 13.54046875 717.67804687 12.2734375 718.02734375 C-3.82654799 722.37204452 -20.31380741 724.70175576 -37 724 C-37 724.66 -37 725.32 -37 726 C-38.52030242 726.31507274 -40.041276 726.62690732 -41.5625 726.9375 C-42.40941406 727.11152344 -43.25632812 727.28554688 -44.12890625 727.46484375 C-60.69023568 730.55178543 -77.78978178 730.21149064 -94.57373047 730.24023438 C-97.96737503 730.24990701 -101.36040346 730.28103771 -104.75390625 730.3125 C-143.12373325 730.49698366 -143.12373325 730.49698366 -156 725 C-157.33507415 724.63345915 -158.67930463 724.29836036 -160.03125 724 C-160.75957031 723.835 -161.48789063 723.67 -162.23828125 723.5 C-162.98464844 723.335 -163.73101562 723.17 -164.5 723 C-172.36133977 721.26208724 -172.36133977 721.26208724 -175.63671875 719.91796875 C-178.548128 718.78709078 -181.20447139 718.59371998 -184.3125 718.3125 C-190.87210578 717.45481096 -196.13785545 715.46599969 -202.10009766 712.66918945 C-206.24115277 710.7339905 -210.2660303 709.22522654 -214.6875 708 C-221.72534961 705.98918583 -227.70072578 702.67028089 -234 699 C-234 698.34 -234 697.68 -234 697 C-234.7528125 696.89171875 -235.505625 696.7834375 -236.28125 696.671875 C-240.9220594 695.52500831 -243.61820414 692.2519349 -247 689 C-247.75240967 688.28626221 -247.75240967 688.28626221 -248.52001953 687.55810547 C-255.53596137 680.87635556 -261.85992774 674.27152405 -267 666 C-267.65484375 664.97003906 -268.3096875 663.94007813 -268.984375 662.87890625 C-271.03271236 659.61003703 -273.02657456 656.31454926 -275 653 C-275.54914063 652.09378906 -276.09828125 651.18757812 -276.6640625 650.25390625 C-285.94759439 634.23386276 -288.39854516 617.12443539 -288.375 598.8125 C-288.37411377 597.55816162 -288.37322754 596.30382324 -288.37231445 595.01147461 C-288.2152092 582.57145014 -287.05709226 570.09020618 -281 559 C-280.34 559 -279.68 559 -279 559 C-278.85304688 558.38253906 -278.70609375 557.76507812 -278.5546875 557.12890625 C-276.7796359 550.42655624 -274.08950537 545.54871524 -270 540 C-269.4121875 539.15824219 -268.824375 538.31648437 -268.21875 537.44921875 C-264.09902519 531.61575595 -259.67140706 526.13195734 -255.01708984 520.72485352 C-251.62088285 516.77412728 -248.42451245 512.71260008 -245.33984375 508.51171875 C-244.89769531 508.01285156 -244.45554688 507.51398438 -244 507 C-243.34 507 -242.68 507 -242 507 C-241.73960937 506.401875 -241.47921875 505.80375 -241.2109375 505.1875 C-239.90933899 502.83622528 -238.70180804 501.6824774 -236.625 500 C-232.14536388 496.23677627 -228.08936849 492.12465488 -224.03759766 487.91210938 C-222.72771978 486.57192804 -221.36754439 485.28128389 -220 484 C-219.34 484 -218.68 484 -218 484 C-218 483.34 -218 482.68 -218 482 C-212.52380952 477 -212.52380952 477 -210 477 C-210.47593556 481.28342007 -212.94761685 483.15573389 -216 486 C-219.03929837 488.89793565 -221.23203256 491.21149833 -223 495 C-223.98305445 496.01666315 -224.98550956 497.01470353 -226 498 C-245.47536907 518.56034785 -260.66927304 542.70865117 -260.28515625 571.66015625 C-259.93168534 581.56622284 -257.3080371 591.15441302 -252.9296875 600.046875 C-251.69397221 602.64291553 -250.84321365 605.33130079 -250.00390625 608.078125 C-248.52555502 610.90827599 -246.27895195 612.78119634 -244 615 C-242.58407582 616.73378471 -241.1884096 618.48429236 -239.8125 620.25 C-229.73352027 632.83905425 -229.73352027 632.83905425 -216 640 C-216 640.66 -216 641.32 -216 642 C-212.95331568 643.04033123 -209.9177229 644.02258587 -206.8125 644.875 C-201.78917888 646.35729148 -196.90637139 648.17231012 -192 650 C-192 650.66 -192 651.32 -192 652 C-191.21625 652.103125 -190.4325 652.20625 -189.625 652.3125 C-186.75806722 652.85622863 -184.25479736 653.53741769 -181.5 654.4375 C-168.75307247 658.32978594 -154.84040091 658.78690549 -141.625 660.0625 C-138.94809539 660.32312432 -136.27128333 660.58465267 -133.59457397 660.84727478 C-131.94514606 661.00888086 -130.29559716 661.16925908 -128.64590454 661.32814026 C-125.15210271 661.66848921 -121.69129151 662.04452794 -118.21533203 662.54589844 C-112.6682792 663.25126673 -107.0988847 663.16251644 -101.515625 663.16796875 C-100.30598083 663.17129715 -99.09633667 663.17462555 -97.85003662 663.17805481 C-95.28479388 663.18310823 -92.71954459 663.18546363 -90.15429688 663.18530273 C-86.33191175 663.1874539 -82.50983275 663.20552745 -78.6875 663.22460938 C-66.05131247 663.25496419 -53.47025059 663.01205531 -40.859375 662.17578125 C-39.74145569 662.10642868 -38.62353638 662.03707611 -37.47174072 661.96562195 C-27.61017751 661.2294479 -18.47995102 658.92656026 -9.1640625 655.69140625 C-6.16353976 654.73275548 -3.12500791 654.06967377 -0.04296875 653.4296875 C1.98604857 653.00293433 3.99163444 652.51450264 6 652 C6 651.34 6 650.68 6 650 C6.85722656 649.74605469 7.71445312 649.49210938 8.59765625 649.23046875 C15.75529112 647.14714622 15.75529112 647.14714622 22.6875 644.4375 C25.47174844 643.22924124 28.09529315 642.34049239 31 641.5 C38.28413583 639.59310093 38.28413583 639.59310093 44.4296875 635.5546875 C46.21512466 633.78701589 47.96810186 632.79558521 50.1875 631.625 C53.28794351 629.95630601 56.28879047 628.21733877 59.25 626.3125 C61.37837395 624.95084344 63.10332442 623.96383645 65.5 623.125 C68.79693372 621.64137983 71.02390715 619.42248495 73.68359375 617 C76.24766142 614.78616754 78.92659408 612.83698967 81.6875 610.875 C84.69337944 608.73508029 87.51242078 606.67079302 90.0625 604 C90.701875 603.34 91.34125 602.68 92 602 C92.66 602 93.32 602 94 602 C94 601.34 94 600.68 94 600 C95.28515625 598.7734375 95.28515625 598.7734375 97.0625 597.375 C109.4361272 587.00590041 118.97289503 571.41207176 126 557 C126.66 557 127.32 557 128 557 C128.27972656 556.13761719 128.55945313 555.27523437 128.84765625 554.38671875 C129.94946238 551.1485292 131.17075985 547.98921594 132.4375 544.8125 C135.81795789 536.05313706 138.0745667 527.380315 139.5703125 518.1171875 C140 516 140 516 141 515 C144.40560087 495.83133227 141.9605137 472.54155031 133.06811523 455.15698242 C131.66367749 452.32082072 130.44394005 449.42039933 129.21166992 446.50634766 C122.21468096 430.08944693 112.16553482 414.94344028 97 405 C96.01 404.34 95.02 403.68 94 403 C94 402.34 94 401.68 94 401 C93.34 400.7525 92.68 400.505 92 400.25 C82.6473755 396.35307313 82.6473755 396.35307313 79.20703125 393.52734375 C76.27184846 391.49609336 73.1255705 390.54433818 69.75 389.5 C68.47344498 389.095366 67.19740378 388.68910747 65.921875 388.28125 C65.26767578 388.0754834 64.61347656 387.8697168 63.93945312 387.65771484 C62.09768454 387.03312716 60.30337944 386.27342034 58.515625 385.5078125 C51.98848394 383.02718128 44.87545491 382.38335869 38 381.375 C36.56238274 381.15702193 35.12488149 380.93827736 33.6875 380.71875 C13.18681348 377.61170294 -3.89147558 376.86359893 -24.03320312 382.54101562 C-26 383 -26 383 -29 383 C-29 383.66 -29 384.32 -29 385 C-30.051875 385.4125 -31.10375 385.825 -32.1875 386.25 C-36.18859872 387.96243779 -39.99263432 389.98526863 -42 394 C-42.66 394 -43.32 394 -44 394 C-44.4021875 394.86625 -44.4021875 394.86625 -44.8125 395.75 C-46 398 -46 398 -47.5 399.9375 C-49.11249292 401.96190479 -49.11249292 401.96190479 -49.9375 404.5 C-51 407 -51 407 -52.81640625 408.6796875 C-55.65054058 411.6912721 -57.21763757 414.92210751 -59 418.625 C-59.35320312 419.34429687 -59.70640625 420.06359375 -60.0703125 420.8046875 C-62.22261629 425.23683901 -64.13119806 429.70388059 -65.875 434.3125 C-67.40519091 437.96795606 -69.20272545 441.46982846 -71 445 C-73.99624783 450.89515702 -76.71124566 456.78910716 -79 463 C-79.44859375 464.16789062 -79.8971875 465.33578125 -80.359375 466.5390625 C-82.76301522 472.94777477 -84.82767458 479.47495682 -86.95117188 485.98046875 C-88.82819393 491.67301734 -90.83324384 497.25492904 -93.15795898 502.78100586 C-94.28828018 505.75969224 -94.94110606 508.76474647 -95.5625 511.8828125 C-96.20200919 514.97758017 -97.09817325 517.97243876 -98 521 C-98.66 521 -99.32 521 -100 521 C-103.81685908 507.97889837 -103.52199643 494.88804921 -103.625 481.4375 C-103.67405079 476.93612229 -103.73022062 472.43485346 -103.7890625 467.93359375 C-103.80316162 466.84114853 -103.81726074 465.74870331 -103.83178711 464.62315369 C-103.93463545 457.49441179 -104.11145675 450.37316863 -104.4140625 443.25 C-104.44561432 442.40420883 -104.47716614 441.55841766 -104.50967407 440.68699646 C-104.9484012 431.46237934 -107.15955751 423.54303195 -114 417 C-117.25169201 414.53911064 -120.60693159 412.26028114 -124 410 C-130.54491974 405.47827705 -130.54491974 405.47827705 -132.41772461 403.51000977 C-134.26753123 401.74468744 -136.1014535 400.748531 -138.37890625 399.58984375 C-139.21744141 399.15736328 -140.05597656 398.72488281 -140.91992188 398.27929688 C-141.79197266 397.83650391 -142.66402344 397.39371094 -143.5625 396.9375 C-145.29471 396.05418762 -147.02526257 395.16761521 -148.75390625 394.27734375 C-149.52033447 393.88796631 -150.2867627 393.49858887 -151.07641602 393.09741211 C-153 392 -153 392 -155 390 C-157.06874034 389.3574765 -157.06874034 389.3574765 -159 389 C-158.67 387.68 -158.34 386.36 -158 385 C-157.34 385 -156.68 385 -156 385 C-156 384.34 -156 383.68 -156 383 C-154.63641055 382.04548739 -153.26411224 381.10151958 -151.85546875 380.21484375 C-149.06379111 378.38702955 -146.46306695 376.31935197 -143.83203125 374.26953125 C-142 373 -142 373 -139 372 C-137.87302825 370.90717891 -136.75218257 369.80729261 -135.6640625 368.67578125 C-133.44421818 366.44030423 -131.13671322 364.31412161 -128.8125 362.1875 C-127.95269531 361.39730469 -127.09289062 360.60710937 -126.20703125 359.79296875 C-124 358 -124 358 -122 358 C-121.67 357.01 -121.34 356.02 -121 355 C-118.90887361 353.22990569 -116.81536961 351.57526394 -114.625 349.9375 C-100.96330582 339.94106679 -100.96330582 339.94106679 -92 326 C-91.34 326 -90.68 326 -90 326 C-89.85884766 324.98719971 -89.71769531 323.97439941 -89.57226562 322.9309082 C-89.0453807 319.3117213 -88.46049742 315.71027705 -87.84375 312.10546875 C-87.62589844 310.81962891 -87.40804687 309.53378906 -87.18359375 308.20898438 C-86.84285664 306.20147081 -86.5011402 304.19414416 -86.15673828 302.18725586 C-83.66792402 288.11781448 -83.66792402 288.11781448 -82.9375 273.875 C-82.9684375 271.956875 -82.9684375 271.956875 -83 270 C-90.08041986 267.63986005 -98.3764477 268.93237851 -105.70556641 269.71264648 C-137.28813759 273.03460236 -167.07871827 271.03952584 -198 264 C-198 263.34 -198 262.68 -198 262 C-199.5159375 262.0928125 -199.5159375 262.0928125 -201.0625 262.1875 C-205.55499372 261.97357173 -208.01085961 260.95386468 -212 259 C-212 258.01 -212 257.02 -212 256 C-211.00097656 255.65066406 -210.00195312 255.30132812 -208.97265625 254.94140625 C-207.66921795 254.48192081 -206.3658354 254.02227721 -205.0625 253.5625 C-204.0734668 253.21735352 -204.0734668 253.21735352 -203.06445312 252.86523438 C-199.77671378 251.88035408 -199.77671378 251.88035408 -197 250 C-194.58882085 249.50050903 -192.16692739 249.10070108 -189.73828125 248.6953125 C-186.54361186 247.88411257 -183.94023915 246.48131338 -181 245 C-178.82887414 244.30109412 -176.63950116 243.6570148 -174.4375 243.0625 C-169.58556493 241.72102219 -164.75174321 240.34662662 -159.9375 238.875 C-158.40416016 238.40707031 -158.40416016 238.40707031 -156.83984375 237.9296875 C-153.99886825 237.03841685 -153.99886825 237.03841685 -151.3046875 235.890625 C-148.72397191 234.89333152 -146.7428275 234.843267 -144 235 C-144 234.34 -144 233.68 -144 233 C-137.30113651 231.0041421 -130.62254653 229.10383148 -123.79711914 227.59301758 C-111.06160495 224.76765238 -99.09459055 220.57912176 -87.31640625 214.96875 C-84.17303526 213.65415303 -81.38593618 213.22572908 -78 213 C-75.30035789 204.26924253 -74.18573529 195.47734876 -73.1784668 186.421875 C-72.51092758 180.57129061 -71.62809478 174.79759128 -70.55859375 169.0078125 C-68.93364364 160.12908863 -67.8712735 151.21391615 -66.86459351 142.24700928 C-64.97176692 125.4266857 -62.79389091 108.6969935 -60 92 C-67.54734853 91.81056286 -67.54734853 91.81056286 -75 92.8125 C-75.721875 92.96332031 -76.44375 93.11414063 -77.1875 93.26953125 C-79.37670113 93.95363379 -79.37670113 93.95363379 -81 97 C-82.96303418 98.07074592 -84.9697411 99.06295743 -87 100 C-91.51435427 102.08835779 -95.22274686 104.54427383 -99.125 107.625 C-100.27145337 108.52560849 -101.41860414 109.42532982 -102.56640625 110.32421875 C-103.1402002 110.77458496 -103.71399414 111.22495117 -104.30517578 111.68896484 C-106.85163431 113.65878367 -109.46149438 115.54057737 -112.0625 117.4375 C-116.84039852 121.00206377 -121.21584838 124.82887793 -125.55517578 128.90063477 C-129.71333172 132.79129499 -134.06534126 136.38969759 -138.52734375 139.9296875 C-141.11702483 142.02763584 -141.11702483 142.02763584 -143.69140625 144.7578125 C-146 147 -146 147 -148 147 C-146.64958977 137.66383048 -139.36468852 130.06377878 -133.68920898 122.82910156 C-130.49190211 118.72406675 -127.69985067 114.48338594 -124.9609375 110.06640625 C-111.64417752 89.24238915 -95.7661099 70.11878968 -79 52 C-78.46503906 51.41605469 -77.93007813 50.83210938 -77.37890625 50.23046875 C-76 49 -76 49 -74 49 C-73.67 48.01 -73.34 47.02 -73 46 C-71.4089357 44.56197818 -69.7513985 43.19674665 -68.0625 41.875 C-64.27491353 38.85859737 -60.61624048 35.78836376 -57.0625 32.5 C-43.83639934 20.47819285 -43.83639934 20.47819285 -37.39453125 17.99609375 C-34.54933727 16.81253019 -33.15170057 15.18072157 -31 13 C-28.44140625 11.5078125 -28.44140625 11.5078125 -25.5625 10.125 C-24.51320313 9.61839844 -23.46390625 9.11179687 -22.3828125 8.58984375 C-21.26648438 8.06519531 -20.15015625 7.54054688 -19 7 C-17.82179688 6.44441406 -16.64359375 5.88882812 -15.4296875 5.31640625 C-4.03192446 0 -4.03192446 0 0 0 Z " fill="#FBFBFB" transform="translate(410,3)"/>
<path d="M0 0 C0.72256485 0.0028299 1.4451297 0.00565979 2.18959045 0.00857544 C4.47162241 0.01966864 6.75324522 0.04475162 9.03515625 0.0703125 C10.59309324 0.08035639 12.15103646 0.08947976 13.70898438 0.09765625 C17.50536324 0.11957217 21.30144065 0.15402512 25.09765625 0.1953125 C25.09765625 3.1953125 25.09765625 3.1953125 23.8125 4.51953125 C23.22597656 4.96941406 22.63945312 5.41929687 22.03515625 5.8828125 C19.43477138 8.00336444 17.19186091 10.12597302 15.03515625 12.6953125 C11.47002428 16.8818895 7.653924 20.79172633 3.78515625 24.6953125 C3.16181396 25.33146484 2.53847168 25.96761719 1.89624023 26.62304688 C1.30657471 27.21408203 0.71690918 27.80511719 0.109375 28.4140625 C-0.42212158 28.94966797 -0.95361816 29.48527344 -1.5012207 30.03710938 C-2.90234375 31.1953125 -2.90234375 31.1953125 -4.90234375 31.1953125 C-4.90234375 31.8553125 -4.90234375 32.5153125 -4.90234375 33.1953125 C-6.94921875 35.140625 -6.94921875 35.140625 -9.65234375 37.3203125 C-10.5340625 38.04476562 -11.41578125 38.76921875 -12.32421875 39.515625 C-14.90234375 41.1953125 -14.90234375 41.1953125 -18.90234375 41.1953125 C-18.43642093 28.03700934 -16.95725708 15.19752044 -14.90234375 2.1953125 C-9.83691582 0.53083419 -5.34595332 -0.08047765 0 0 Z " fill="#070707" transform="translate(402.90234375,251.8046875)"/>
<path d="M0 0 C2.64 0 5.28 0 8 0 C8 0.66 8 1.32 8 2 C9.258125 2.12375 10.51625 2.2475 11.8125 2.375 C15.22857516 2.75045099 18.566102 3.27470194 21.9375 3.9375 C34.82832484 6.3411759 47.99131052 7.2146718 61.0480957 8.24560547 C66.42297788 8.67580049 71.76845677 9.19004867 77.11938477 9.85253906 C95.98555457 12.13142698 114.95565526 11.1301194 133.875 10.0625 C134.65069336 10.01911499 135.42638672 9.97572998 136.22558594 9.93103027 C138.43982492 9.80457963 140.65353612 9.67147564 142.8671875 9.53515625 C144.14706543 9.456604 145.42694336 9.37805176 146.74560547 9.29711914 C149.31923952 9.06215195 151.52802913 8.68043555 154 8 C156.08208969 7.87338644 158.16578945 7.77232252 160.25 7.6875 C166.58930971 7.28963537 172.38952594 6.10408114 178.49316406 4.37182617 C182.44000995 3.27430484 185.90586645 2.80413867 190 3 C190 2.34 190 1.68 190 1 C192.64 0.67 195.28 0.34 198 0 C194.92579919 2.94053991 191.86065545 3.59554139 187.765625 4.40234375 C181.12238274 5.83795966 174.51030664 7.80693545 168.07641602 9.99365234 C162.62039609 11.53973971 156.98097411 11.7297448 151.34765625 12.1015625 C149.50071922 12.22707993 149.50071922 12.22707993 147.61647034 12.35513306 C134.22519757 13.20286823 120.85222361 13.39312664 107.4375 13.375 C105.55766922 13.37617828 105.55766922 13.37617828 103.63986206 13.37738037 C84.29783216 13.36294315 65.48116225 12.31601072 46.35644531 9.47851562 C41.56306877 8.79514219 36.75683864 8.3302187 31.9375 7.875 C20.88085671 6.74564799 10.63339227 4.15630952 0 1 C0 0.67 0 0.34 0 0 Z " fill="#4D4D4D" transform="translate(218,654)"/>
<path d="M0 0 C-2.38233671 0.47646734 -4.76481487 0.9518649 -7.1484375 1.421875 C-8.9495393 1.78702988 -10.74717983 2.1701271 -12.5390625 2.578125 C-18.43938159 3.88930702 -23.96298444 4.23120485 -30 4 C-30 4.66 -30 5.32 -30 6 C-50.30538212 8.64226464 -70.38193763 10.40109128 -90.875 10.3125 C-91.77804871 10.30968018 -92.68109741 10.30686035 -93.61151123 10.30395508 C-96.1969299 10.29144946 -98.78191717 10.26834142 -101.3671875 10.23828125 C-102.50250916 10.22695915 -102.50250916 10.22695915 -103.6607666 10.21540833 C-108.50704869 10.12997315 -113.19925507 9.67299846 -118 9 C-118 8.67 -118 8.34 -118 8 C-117.1203508 7.9845388 -117.1203508 7.9845388 -116.22293091 7.96876526 C-110.02403019 7.85913599 -103.82523043 7.74470084 -97.62646484 7.62768555 C-95.32440336 7.58482887 -93.02232 7.54312838 -90.72021484 7.50268555 C-65.49009755 7.17097942 -65.49009755 7.17097942 -40.375 4.9375 C-39.64539063 4.84662109 -38.91578125 4.75574219 -38.1640625 4.66210938 C-36.44201862 4.44685389 -34.72088032 4.22436794 -33 4 C-33 3.34 -33 2.68 -33 2 C-32.40574219 1.94465088 -31.81148438 1.88930176 -31.19921875 1.83227539 C-28.46602411 1.57696823 -25.73301279 1.3197462 -23 1.0625 C-22.06542969 0.97548828 -21.13085938 0.88847656 -20.16796875 0.79882812 C-15.95010874 0.40063854 -11.75590465 -0.02304097 -7.5625 -0.62890625 C-4.56281808 -0.94137312 -2.77428083 -1.04035531 0 0 Z " fill="#505050" transform="translate(406,725)"/>
<path d="M0 0 C2.64 0 5.28 0 8 0 C8 0.66 8 1.32 8 2 C9.258125 2.12375 10.51625 2.2475 11.8125 2.375 C15.22857516 2.75045099 18.566102 3.27470194 21.9375 3.9375 C34.81236285 6.33819956 47.95228609 7.19683975 60.9909668 8.24560547 C70.34536722 9.00526973 79.67238751 9.96604296 89 11 C89 11.33 89 11.66 89 12 C76.63238772 12.23684342 64.54357153 11.72711537 52.24584961 10.40087891 C49.67198644 10.1233271 47.09700638 9.85932597 44.52148438 9.59765625 C16.99879482 6.76480581 16.99879482 6.76480581 7.125 3.375 C6.42503906 3.14554688 5.72507813 2.91609375 5.00390625 2.6796875 C3.33248644 2.13017962 1.66565094 1.56675396 0 1 C0 0.67 0 0.34 0 0 Z " fill="#3D3D3D" transform="translate(218,654)"/>
<path d="M0 0 C0.33 0 0.66 0 1 0 C1.02893932 3.62498334 1.04677792 7.24993713 1.0625 10.875 C1.07087891 11.90753906 1.07925781 12.94007812 1.08789062 14.00390625 C1.09111328 14.99003906 1.09433594 15.97617188 1.09765625 16.9921875 C1.10289307 17.90339355 1.10812988 18.81459961 1.11352539 19.75341797 C1 22 1 22 0 24 C-1.56744055 33.49036273 -2.27961635 43.01221399 -2.65820312 52.61499023 C-2.82016585 56.5124249 -3.07615909 60.19011064 -4 64 C-4.33 64 -4.66 64 -5 64 C-4.65884196 42.51292577 -2.43635501 21.32953469 0 0 Z " fill="#777777" transform="translate(403,82)"/>
<path d="M0 0 C1.0859697 0.00212242 1.0859697 0.00212242 2.19387817 0.00428772 C4.48606657 0.0098455 6.77815407 0.02238992 9.0703125 0.03515625 C10.63281108 0.04017672 12.19531121 0.04473866 13.7578125 0.04882812 C17.57035085 0.05980106 21.38281462 0.07703615 25.1953125 0.09765625 C25.1953125 1.08765625 25.1953125 2.07765625 25.1953125 3.09765625 C24.2053125 3.42765625 23.2153125 3.75765625 22.1953125 4.09765625 C22.1953125 3.43765625 22.1953125 2.77765625 22.1953125 2.09765625 C9.9853125 2.75765625 -2.2246875 3.41765625 -14.8046875 4.09765625 C-14.4746875 3.10765625 -14.1446875 2.11765625 -13.8046875 1.09765625 C-9.17364187 0.18719898 -4.70291323 -0.03513423 0 0 Z " fill="#525252" transform="translate(402.8046875,251.90234375)"/>
<path d="M0 0 C0.66 0.33 1.32 0.66 2 1 C-5.53275344 9.13807836 -13.06295183 17.25192917 -21 25 C-21.99 24.67 -22.98 24.34 -24 24 C-22.09042286 21.86823936 -20.17291237 19.7446755 -18.25 17.625 C-17.71117187 17.02171875 -17.17234375 16.4184375 -16.6171875 15.796875 C-16.08867187 15.21679688 -15.56015625 14.63671875 -15.015625 14.0390625 C-14.53383789 13.50490723 -14.05205078 12.97075195 -13.55566406 12.42041016 C-12 11 -12 11 -9.87402344 9.99755859 C-7.64665274 9.08802372 -7.64665274 9.08802372 -7 6 C-5.37109375 4.39453125 -5.37109375 4.39453125 -3.4375 2.8125 C-2.47650391 2.01779297 -2.47650391 2.01779297 -1.49609375 1.20703125 C-1.00238281 0.80871094 -0.50867188 0.41039062 0 0 Z " fill="#CFCFCF" transform="translate(344,43)"/>
<path d="M0 0 C-0.47593556 4.28342007 -2.94761685 6.15573389 -6 9 C-10.20646843 12.99819022 -10.20646843 12.99819022 -13 18 C-13.66 18 -14.32 18 -15 18 C-15 17.34 -15 16.68 -15 16 C-16.32 16.33 -17.64 16.66 -19 17 C-18.06409496 15.8944811 -17.12620142 14.79064547 -16.1875 13.6875 C-15.66542969 13.07261719 -15.14335937 12.45773437 -14.60546875 11.82421875 C-11.6626898 8.48047722 -11.6626898 8.48047722 -10 7 C-9.34 7 -8.68 7 -8 7 C-8 6.34 -8 5.68 -8 5 C-2.52380952 0 -2.52380952 0 0 0 Z " fill="#AEAEAE" transform="translate(200,480)"/>
<path d="M0 0 C-4.47018614 2.47653831 -8.47894212 3.66952731 -13.5 4.5625 C-18.16842823 5.40224776 -22.53402634 6.3963385 -27 8 C-33.10692583 10.15538559 -38.60840281 10.20804475 -45 10 C-45 9.67 -45 9.34 -45 9 C-44.34515625 8.85900879 -43.6903125 8.71801758 -43.015625 8.57275391 C-40.01012398 7.92485194 -37.00506087 7.27494026 -34 6.625 C-32.45505859 6.29242187 -32.45505859 6.29242187 -30.87890625 5.953125 C-26.38984435 4.98097147 -21.91479133 3.99828654 -17.46875 2.84375 C-14.16210054 2.03942986 -11.3854864 1.83072568 -8 2 C-8 1.34 -8 0.68 -8 0 C-4.71303767 -0.79953138 -3.28976808 -1.09658936 0 0 Z " fill="#B6B6B6" transform="translate(416,655)"/>
<path d="M0 0 C0.33 0.66 0.66 1.32 1 2 C0.67 2.66 0.34 3.32 0 4 C1.60101563 4.03867187 1.60101563 4.03867187 3.234375 4.078125 C15.14386614 4.49005455 26.38540234 6.39338361 38 9 C38 9.33 38 9.66 38 10 C32.19179701 10.22339242 26.94253562 9.53917312 21.23046875 8.50390625 C16.83563322 7.81837568 12.44738647 7.56628504 8.0078125 7.34375 C4.78661596 6.97561325 2.03345046 6.12282942 -1 5 C-0.67 3.35 -0.34 1.7 0 0 Z " fill="#666666" transform="translate(450,316)"/>
<path d="M0 0 C0.33 0 0.66 0 1 0 C1 6.6 1 13.2 1 20 C2.98 20 4.96 20 7 20 C7.33 19.67 7.66 19.34 8 19 C10.58492561 18.59573652 13.15346396 18.24606722 15.75 17.9375 C16.46671875 17.84662109 17.1834375 17.75574219 17.921875 17.66210938 C21.63451644 17.20826626 25.25930484 16.8895464 29 17 C26.20269815 19.79730185 23.88865582 19.58837086 20 20.0625 C15.34500113 20.50539997 15.34500113 20.50539997 11 22 C9.1478437 22.09584979 7.29212847 22.12983606 5.4375 22.125 C4.44621094 22.12757813 3.45492188 22.13015625 2.43359375 22.1328125 C0 22 0 22 -1 21 C-1.3524287 13.94106052 -1.09460611 6.97811397 0 0 Z " fill="#4B4B4B" transform="translate(395,178)"/>
<path d="M0 0 C7.18162346 0.1898987 13.53448794 1.91743531 20.2890625 4.18432617 C24.18118459 5.48282194 27.93334907 6.44430857 32 7 C32 7.33 32 7.66 32 8 C20.79882325 8.57937121 9.95273462 6.18700719 0 1 C0 0.67 0 0.34 0 0 Z " fill="#5B5B5B" transform="translate(222,720)"/>
<path d="M0 0 C2.64 0 5.28 0 8 0 C8 0.66 8 1.32 8 2 C9.88525391 2.18369141 9.88525391 2.18369141 11.80859375 2.37109375 C17.2861491 2.97971101 22.65789797 3.99812813 28.0625 5.0625 C29.02349609 5.24876953 29.98449219 5.43503906 30.97460938 5.62695312 C33.31704531 6.08145562 35.65879844 6.53918902 38 7 C38 7.33 38 7.66 38 8 C24.68400683 8.53263973 12.46880269 5.24263157 0 1 C0 0.67 0 0.34 0 0 Z " fill="#717171" transform="translate(218,654)"/>
<path d="M0 0 C0 0.66 0 1.32 0 2 C-0.969375 2.268125 -1.93875 2.53625 -2.9375 2.8125 C-5.80246955 3.62693691 -8.61944111 4.53618472 -11.4375 5.5 C-17.52778249 7.55080941 -23.6354604 9.04531906 -30 10 C-26.30827405 6.46209597 -22.90609405 6.40884117 -18 6 C-18 5.34 -18 4.68 -18 4 C-15.75194998 3.32678716 -13.50147776 2.66165877 -11.25 2 C-9.99703125 1.62875 -8.7440625 1.2575 -7.453125 0.875 C-4 0 -4 0 0 0 Z " fill="#9F9F9F" transform="translate(284,232)"/>
<path d="M0 0 C-1.16015625 0.38671875 -2.3203125 0.7734375 -3.515625 1.171875 C-4.2669873 1.42251709 -5.01834961 1.67315918 -5.79248047 1.93139648 C-7.43688278 2.47914941 -9.08174401 3.02552648 -10.72705078 3.57055664 C-14.40594833 4.79094972 -18.07404518 6.02631165 -21.7265625 7.32421875 C-22.76554688 7.69160156 -23.80453125 8.05898437 -24.875 8.4375 C-25.77992188 8.76621094 -26.68484375 9.09492188 -27.6171875 9.43359375 C-30.17655776 10.04196865 -31.54870548 9.87220479 -34 9 C-26.60580479 5.32246376 -18.94886399 3.15470345 -11 1 C-9.78570312 0.61070312 -8.57140625 0.22140625 -7.3203125 -0.1796875 C-4.07545858 -0.98135729 -3.03918008 -0.93468655 0 0 Z " fill="#9A9A9A" transform="translate(254,243)"/>
<path d="M0 0 C0.02706445 2.89589652 0.04687029 5.79153795 0.0625 8.6875 C0.07087891 9.50412109 0.07925781 10.32074219 0.08789062 11.16210938 C0.10442051 15.24499084 0.03035098 19.01651707 -1 23 C-1.33 23 -1.66 23 -2 23 C-1.67 15.74 -1.34 8.48 -1 1 C-5.84998212 3.0111755 -5.84998212 3.0111755 -10.69287109 5.03930664 C-12.43937757 5.7509067 -14.2196557 6.37787969 -16 7 C-16.66 6.67 -17.32 6.34 -18 6 C-12.30153319 1.83039014 -7.17694782 -0.14721944 0 0 Z " fill="#767676" transform="translate(411,2)"/>
<path d="M0 0 C-2 2 -2 2 -3.9375 2.4375 C-6.05027248 2.82524618 -6.05027248 2.82524618 -7.2890625 4.33203125 C-9.46432472 6.45266359 -11.78797691 7.76885548 -14.4375 9.25 C-15.85869141 10.06210937 -15.85869141 10.06210937 -17.30859375 10.890625 C-20.28627857 12.11800162 -21.05251964 11.91610345 -24 11 C-22.92878906 10.44570313 -21.85757812 9.89140625 -20.75390625 9.3203125 C-19.35661281 8.58884345 -17.95948596 7.85705611 -16.5625 7.125 C-15.85544922 6.76019531 -15.14839844 6.39539063 -14.41992188 6.01953125 C-10.55990332 4.2119682 -10.55990332 4.2119682 -8 1 C-2.47058824 -1.23529412 -2.47058824 -1.23529412 0 0 Z " fill="#757575" transform="translate(526,679)"/>
<path d="M0 0 C0.33 0.99 0.66 1.98 1 3 C-0.38285144 4.49131037 -1.78185739 5.96765185 -3.1875 7.4375 C-3.96480469 8.26121094 -4.74210937 9.08492187 -5.54296875 9.93359375 C-8.1461801 12.12294002 -9.66227956 12.67393495 -13 13 C-12.04882866 11.8274869 -11.08882991 10.66212985 -10.125 9.5 C-9.59132813 8.8503125 -9.05765625 8.200625 -8.5078125 7.53125 C-8.01023437 7.0259375 -7.51265625 6.520625 -7 6 C-6.34 6 -5.68 6 -5 6 C-5 5.34 -5 4.68 -5 4 C-3.37373596 2.61767557 -1.7074998 1.28062485 0 0 Z " fill="#C2C2C2" transform="translate(509,599)"/>
<path d="M0 0 C0.66 0.33 1.32 0.66 2 1 C-2.03523352 5.81123996 -6.04467233 10.13242719 -11 14 C-11 10.47967572 -10.29648649 9.5614657 -8 7 C-7.34 7 -6.68 7 -6 7 C-5.7525 6.401875 -5.505 5.80375 -5.25 5.1875 C-3.83629988 2.71352479 -2.34944617 1.56629745 0 0 Z " fill="#4B4B4B" transform="translate(374,390)"/>
<path d="M0 0 C0.66 0.33 1.32 0.66 2 1 C0.61240749 2.61130023 -0.78545623 4.21375841 -2.1875 5.8125 C-2.96480469 6.70582031 -3.74210937 7.59914063 -4.54296875 8.51953125 C-7.93366653 11.94257273 -11.69533228 13.92738221 -16 16 C-15.04882866 14.8274869 -14.08882991 13.66212985 -13.125 12.5 C-12.59132813 11.8503125 -12.05765625 11.200625 -11.5078125 10.53125 C-10.76144531 9.77328125 -10.76144531 9.77328125 -10 9 C-9.34 9 -8.68 9 -8 9 C-7.67 8.01 -7.34 7.02 -7 6 C-5.37109375 4.39453125 -5.37109375 4.39453125 -3.4375 2.8125 C-2.79683594 2.28269531 -2.15617187 1.75289062 -1.49609375 1.20703125 C-1.00238281 0.80871094 -0.50867188 0.41039062 0 0 Z " fill="#A5A5A5" transform="translate(344,43)"/>
<path d="M0 0 C0.33 0.66 0.66 1.32 1 2 C-1.09009433 6.54902883 -4.06561898 9.07014179 -8 12 C-8.66 12 -9.32 12 -10 12 C-8.52278578 8.54798361 -6.56205999 6.35038064 -3.875 3.75 C-3.15054688 3.04359375 -2.42609375 2.3371875 -1.6796875 1.609375 C-1.12539063 1.07828125 -0.57109375 0.5471875 0 0 Z " fill="#424242" transform="translate(586,628)"/>
<path d="M0 0 C0 3.74016583 -0.9341591 4.45276193 -3.375 7.1875 C-4.00148438 7.90292969 -4.62796875 8.61835938 -5.2734375 9.35546875 C-7 11 -7 11 -9 11 C-9.2475 11.639375 -9.495 12.27875 -9.75 12.9375 C-11 15 -11 15 -13.078125 15.62890625 C-14.02945312 15.81259766 -14.02945312 15.81259766 -15 16 C-10.30233025 10.33870569 -5.25276628 5.14771096 0 0 Z " fill="#B3B3B3" transform="translate(415,267)"/>
<path d="M0 0 C0.12375 0.639375 0.2475 1.27875 0.375 1.9375 C0.684375 2.9584375 0.684375 2.9584375 1 4 C1.66 4.33 2.32 4.66 3 5 C2.0479279 6.00596297 1.08812654 7.00461563 0.125 8 C-0.40867187 8.556875 -0.94234375 9.11375 -1.4921875 9.6875 C-3 11 -3 11 -5 11 C-4.46884894 6.48521602 -2.63379708 3.65333143 0 0 Z " fill="#BEBEBE" transform="translate(267,139)"/>
<path d="M0 0 C0.33 1.32 0.66 2.64 1 4 C0.01 4.33 -0.98 4.66 -2 5 C-1.67 6.65 -1.34 8.3 -1 10 C-1.78375 10.5775 -2.5675 11.155 -3.375 11.75 C-5.80047244 13.82897637 -6.85694417 15.09040333 -8 18 C-8.33 17.34 -8.66 16.68 -9 16 C-7.890625 13.3203125 -7.890625 13.3203125 -6.25 10.125 C-5.45335937 8.55105469 -5.45335937 8.55105469 -4.640625 6.9453125 C-3.24412652 4.43826522 -1.79111049 2.2334932 0 0 Z " fill="#565656" transform="translate(357,410)"/>
<path d="M0 0 C0.91156249 2.98302846 1.01974352 5.15338321 0.51171875 8.22265625 C0.38216797 9.00833984 0.25261719 9.79402344 0.11914062 10.60351562 C-0.02330078 11.41498047 -0.16574219 12.22644531 -0.3125 13.0625 C-0.44333984 13.87783203 -0.57417969 14.69316406 -0.70898438 15.53320312 C-1.36525402 19.39156136 -1.78133804 21.67200706 -4 25 C-5.32 24.67 -6.64 24.34 -8 24 C-7.36610352 23.60578857 -6.73220703 23.21157715 -6.07910156 22.80541992 C-3.5374593 20.59834564 -3.29039075 19.38980261 -2.734375 16.11328125 C-2.56679688 15.17548828 -2.39921875 14.23769531 -2.2265625 13.27148438 C-2.06929688 12.29501953 -1.91203125 11.31855469 -1.75 10.3125 C-1.57726562 9.32443359 -1.40453125 8.33636719 -1.2265625 7.31835938 C-0.80268586 4.88106867 -0.39450474 2.4421873 0 0 Z " fill="#717171" transform="translate(336,192)"/>
<path d="M0 0 C-4.4853554 2.47180576 -8.60632113 3.76436768 -13.625 4.75 C-15.56246094 5.14445313 -15.56246094 5.14445313 -17.5390625 5.546875 C-20.5416664 5.93999244 -22.21948327 6.04445806 -25 5 C-13.47835991 1.55580866 -13.47835991 1.55580866 -8 2 C-8 1.34 -8 0.68 -8 0 C-4.71303767 -0.79953138 -3.28976808 -1.09658936 0 0 Z " fill="#828282" transform="translate(416,655)"/>
<path d="M0 0 C2.0625 0.4375 2.0625 0.4375 4 1 C-2.24161903 4.58125682 -6.75420281 6.67090715 -14 6 C-11.14585217 4.09723478 -9.1305318 3.34392358 -5.875 2.4375 C-2.65831713 1.72262118 -2.65831713 1.72262118 0 0 Z " fill="#8E8E8E" transform="translate(430,648)"/>
<path d="M0 0 C0 4.38100054 -1.77085137 7.6342793 -4.6875 10.875 C-5.3371875 11.431875 -5.3371875 11.431875 -6 12 C-6.99 11.67 -7.98 11.34 -9 11 C-6.03 7.37 -3.06 3.74 0 0 Z " fill="#B1B1B1" transform="translate(163,514)"/>
<path d="M0 0 C0 0.66 0 1.32 0 2 C-2.12437048 2.50266794 -4.24951726 3.0020561 -6.375 3.5 C-7.55835938 3.7784375 -8.74171875 4.056875 -9.9609375 4.34375 C-13 5 -13 5 -15 5 C-15 4.34 -15 3.68 -15 3 C-13.25183142 2.49363393 -11.50137737 1.99515381 -9.75 1.5 C-8.77546875 1.2215625 -7.8009375 0.943125 -6.796875 0.65625 C-4 0 -4 0 0 0 Z " fill="#585858" transform="translate(396,383)"/>
<path d="M0 0 C1.32 0.33 2.64 0.66 4 1 C4 1.33 4 1.66 4 2 C7.02734375 2.68359375 7.02734375 2.68359375 10.0546875 3.3671875 C12 4 12 4 14 6 C8.34605369 6.34615998 4.96993194 5.43425238 0 3 C0 2.01 0 1.02 0 0 Z " fill="#ACACAC" transform="translate(198,259)"/>
<path d="M0 0 C0 3.73120489 -1.18031476 5.78055689 -3 9 C-3.99 9.495 -3.99 9.495 -5 10 C-5.72159424 11.64363134 -6.39351421 13.31050386 -7 15 C-7.66 15 -8.32 15 -9 15 C-7.58399311 8.86397012 -3.9336625 4.73301638 0 0 Z " fill="#9E9E9E" transform="translate(293,102)"/>
<path d="M0 0 C0.66 0.33 1.32 0.66 2 1 C1.154375 1.7425 0.30875 2.485 -0.5625 3.25 C-1.7690625 4.61125 -1.7690625 4.61125 -3 6 C-2.95502158 8.27523089 -2.95502158 8.27523089 -2 10 C-2.99 10.33 -3.98 10.66 -5 11 C-5 10.34 -5 9.68 -5 9 C-6.32 9.33 -7.64 9.66 -9 10 C-8.06409496 8.8944811 -7.12620142 7.79064547 -6.1875 6.6875 C-5.66542969 6.07261719 -5.14335937 5.45773437 -4.60546875 4.82421875 C-3.12827531 3.14575321 -1.59960869 1.56117966 0 0 Z " fill="#989898" transform="translate(190,487)"/>
<path d="M0 0 C0.33 0.66 0.66 1.32 1 2 C0.67 2.66 0.34 3.32 0 4 C1.01320313 4.07347656 1.01320313 4.07347656 2.046875 4.1484375 C2.93890625 4.22320312 3.8309375 4.29796875 4.75 4.375 C6.07257813 4.47941406 6.07257813 4.47941406 7.421875 4.5859375 C9.99066382 4.99850055 11.75841015 5.71160957 14 7 C8.5610835 7.21755666 4.12919186 7.10428384 -1 5 C-0.67 3.35 -0.34 1.7 0 0 Z " fill="#ACACAC" transform="translate(450,316)"/>
<path d="M0 0 C-2.28814723 2.28814723 -3.80751622 2.75451161 -6.875 3.6875 C-7.73867187 3.95949219 -8.60234375 4.23148438 -9.4921875 4.51171875 C-12.08694932 5.01692938 -13.530785 4.85561171 -16 4 C-10.45108785 1.18150494 -6.258654 -0.5326514 0 0 Z " fill="#A7A7A7" transform="translate(236,248)"/>
<path d="M0 0 C-0.309375 0.598125 -0.61875 1.19625 -0.9375 1.8125 C-2.10209704 4.08956772 -2.10209704 4.08956772 -3 7 C-4.32 7 -5.64 7 -7 7 C-6.67 5.68 -6.34 4.36 -6 3 C-5.34 3 -4.68 3 -4 3 C-4 2.34 -4 1.68 -4 1 C-2 0 -2 0 0 0 Z " fill="#A8A8A8" transform="translate(258,385)"/>
<path d="M0 0 C0.33 1.32 0.66 2.64 1 4 C-1.64 5.98 -4.28 7.96 -7 10 C-4.98127747 5.96255494 -2.91899872 3.37989325 0 0 Z " fill="#4C4C4C" transform="translate(477,282)"/>
<path d="M0 0 C-2.12040742 1.03033882 -4.24647908 2.04902854 -6.375 3.0625 C-8.15003906 3.91521484 -8.15003906 3.91521484 -9.9609375 4.78515625 C-10.96382813 5.18605469 -11.96671875 5.58695313 -13 6 C-13.66 5.67 -14.32 5.34 -15 5 C-4.85148515 -2.42574257 -4.85148515 -2.42574257 0 0 Z " fill="#525252" transform="translate(408,3)"/>
<path d="M0 0 C0.57234375 0.21527344 1.1446875 0.43054688 1.734375 0.65234375 C0.49493224 1.52175869 -0.75769559 2.37239832 -2.015625 3.21484375 C-2.71171875 3.69050781 -3.4078125 4.16617188 -4.125 4.65625 C-6.265625 5.65234375 -6.265625 5.65234375 -8.53125 5.3046875 C-9.10359375 5.08941406 -9.6759375 4.87414062 -10.265625 4.65234375 C-9.02618224 3.78292881 -7.77355441 2.93228918 -6.515625 2.08984375 C-5.81953125 1.61417969 -5.1234375 1.13851562 -4.40625 0.6484375 C-2.265625 -0.34765625 -2.265625 -0.34765625 0 0 Z " fill="#525252" transform="translate(500.265625,691.34765625)"/>
<path d="M0 0 C4.19469571 0.59924224 8.00999834 1.57499941 12 3 C8.23918426 4.25360525 5.84551868 3.83902226 2 3 C1.34 2.01 0.68 1.02 0 0 Z " fill="#555555" transform="translate(460,386)"/>
<path d="M0 0 C0.33 0.66 0.66 1.32 1 2 C1.66 2.33 2.32 2.66 3 3 C-1.75 7 -1.75 7 -4 7 C-2.92598892 4.08482708 -2.22189824 2.22189824 0 0 Z " fill="#444444" transform="translate(465,297)"/>
<path d="M0 0 C0.66 0.99 1.32 1.98 2 3 C0.35 4.32 -1.3 5.64 -3 7 C-3.66 6.67 -4.32 6.34 -5 6 C-3.35 4.02 -1.7 2.04 0 0 Z " fill="#454545" transform="translate(489,267)"/>
<path d="M0 0 C0 0.99 0 1.98 0 3 C-4.455 4.485 -4.455 4.485 -9 6 C-3.2 0 -3.2 0 0 0 Z " fill="#6A6A6A" transform="translate(539,670)"/>
<path d="M0 0 C0.66 0.33 1.32 0.66 2 1 C-0.75 3.0625 -0.75 3.0625 -4 5 C-6.203125 4.62109375 -6.203125 4.62109375 -8 4 C-6.71349294 3.30289269 -5.42059335 2.61757124 -4.125 1.9375 C-3.40570313 1.55464844 -2.68640625 1.17179688 -1.9453125 0.77734375 C-1.30335938 0.52082031 -0.66140625 0.26429688 0 0 Z " fill="#868686" transform="translate(462,634)"/>
<path d="M0 0 C-3.00617269 3.00617269 -5.82381598 2.59585316 -10 3 C-7.29536552 -0.8183075 -4.37912428 -0.24787496 0 0 Z " fill="#8B8B8B" transform="translate(220,253)"/>
</svg>
